<svg width="1249" height="59" viewBox="0 0 1249 59" fill="none" xmlns="http://www.w3.org/2000/svg">
<rect width="146" height="767" fill="transparent"/>
<rect x="49" y="29" width="7" height="1200" transform="rotate(-90 49 29)" fill="var(--color-rose-2)"/>
<rect x="904" y="7" width="3" height="200" transform="rotate(-90 904 7)" fill="var(--color-rose-2)"/>
<rect x="904" y="7" width="3" height="200" transform="rotate(-90 904 7)" fill="var(--color-rose-2)"/>
<rect x="969" y="44.5" width="3" height="60" transform="rotate(-90 969 44.5)" fill="var(--color-rose-2)"/>
<rect x="1103" y="6.92245" width="3" height="100" transform="rotate(-78.6999 1103 6.92245)" fill="var(--color-rose-2)"/>
<rect x="871" y="24.9418" width="3" height="100" transform="rotate(-78.6999 871 24.9418)" fill="var(--color-rose-2)"/>
<rect x="902" width="2" height="10" fill="var(--color-rose-2)"/>
<rect x="1029" y="38" width="2" height="10" fill="var(--color-rose-2)"/>
<rect x="1029" y="38" width="2" height="10" fill="var(--color-rose-2)"/>
<rect x="1029" y="38" width="2" height="10" fill="var(--color-rose-2)"/>
<rect x="1033" y="38" width="2" height="10" fill="var(--color-rose-2)"/>
<rect x="1033" y="38" width="2" height="10" fill="var(--color-rose-2)"/>
<rect x="1041" y="38" width="2" height="10" fill="var(--color-rose-2)"/>
<rect x="1043" y="45" width="1" height="14" transform="rotate(90 1043 45)" fill="var(--color-rose-2)"/>
<rect x="1030" y="10" width="1" height="10" transform="rotate(90 1030 10)" fill="var(--color-rose-2)"/>
<rect x="1030" y="12" width="1" height="10" transform="rotate(90 1030 12)" fill="var(--color-rose-2)"/>
<rect x="1037" y="38" width="2" height="10" fill="var(--color-rose-2)"/>
<rect x="1020" y="9" width="4" height="10" transform="rotate(-90 1020 9)" fill="var(--color-rose-2)"/>
<rect x="1037" y="9" width="4" height="10" transform="rotate(-90 1037 9)" fill="var(--color-rose-2)"/>
<rect x="821" y="33" width="4" height="40" transform="rotate(-90 821 33)" fill="var(--color-rose-2)"/>
<rect x="250" y="39" width="4" height="40" transform="rotate(-90 250 39)" fill="var(--color-rose-2)"/>
<rect x="49" y="43" width="20" height="20" transform="rotate(-90 49 43)" fill="var(--color-rose-2)"/>
<rect y="43" width="16" height="40" transform="rotate(-90 0 43)" fill="var(--color-rose-2)"/>
<rect x="250" y="47" width="4" height="40" transform="rotate(-90 250 47)" fill="var(--color-rose-2)"/>
<rect x="250" y="59" width="2" height="40" transform="rotate(-90 250 59)" fill="var(--color-rose-2)"/>
<rect x="250" y="53" width="2" height="40" transform="rotate(-90 250 53)" fill="var(--color-rose-2)"/>
<rect x="642" y="43" width="4" height="14" transform="rotate(-90 642 43)" fill="var(--color-rose-2)"/>
<path d="M649.252 42.2516L631.931 12.2516L666.572 12.2516L649.252 42.2516Z" fill="var(--color-rose-2)"/>
</svg>
