<svg width="28" height="140" viewBox="0 0 28 140" fill="none" xmlns="http://www.w3.org/2000/svg">
<rect width="28" height="140" fill="transparent"/>
<circle cx="2" cy="2" r="2" fill="var(--color-rose-3-2)"/>
<circle cx="10" cy="2" r="2" fill="var(--color-rose-3-2)"/>
<circle cx="10" cy="10" r="2" fill="var(--color-rose-3-2)"/>
<circle cx="2" cy="10" r="2" fill="var(--color-rose-3-2)"/>
<circle cx="2" cy="18" r="2" fill="var(--color-rose-3-2)"/>
<circle cx="10" cy="18" r="2" fill="var(--color-rose-3-2)"/>
<circle cx="10" cy="26" r="2" fill="var(--color-rose-3-2)"/>
<circle cx="2" cy="26" r="2" fill="var(--color-rose-3-2)"/>
<circle cx="18" cy="18" r="2" fill="var(--color-rose-3-2)"/>
<circle cx="26" cy="18" r="2" fill="var(--color-rose-3-2)"/>
<circle cx="26" cy="26" r="2" fill="var(--color-rose-3-2)"/>
<circle cx="18" cy="26" r="2" fill="var(--color-rose-3-2)"/>
<circle cx="18" cy="34" r="2" fill="var(--color-rose-3-2)"/>
<circle cx="26" cy="34" r="2" fill="var(--color-rose-3-2)"/>
<circle cx="26" cy="42" r="2" fill="var(--color-rose-3-2)"/>
<circle cx="18" cy="42" r="2" fill="var(--color-rose-3-2)"/>
<circle cx="18" cy="50" r="2" fill="var(--color-rose-3-2)"/>
<circle cx="26" cy="50" r="2" fill="var(--color-rose-3-2)"/>
<circle cx="26" cy="58" r="2" fill="var(--color-rose-3-2)"/>
<circle cx="18" cy="58" r="2" fill="var(--color-rose-3-2)"/>
<circle cx="18" cy="66" r="2" fill="var(--color-rose-3-2)"/>
<circle cx="26" cy="66" r="2" fill="var(--color-rose-3-2)"/>
<circle cx="26" cy="74" r="2" fill="var(--color-rose-3-2)"/>
<circle cx="18" cy="74" r="2" fill="var(--color-rose-3-2)"/>
<circle cx="18" cy="82" r="2" fill="var(--color-rose-3-2)"/>
<circle cx="26" cy="82" r="2" fill="var(--color-rose-3-2)"/>
<circle cx="26" cy="90" r="2" fill="var(--color-rose-3-2)"/>
<circle cx="18" cy="90" r="2" fill="var(--color-rose-3-2)"/>
<circle cx="18" cy="98" r="2" fill="var(--color-rose-3-2)"/>
<circle cx="26" cy="98" r="2" fill="var(--color-rose-3-2)"/>
<circle cx="26" cy="106" r="2" fill="var(--color-rose-3-2)"/>
<circle cx="18" cy="106" r="2" fill="var(--color-rose-3-2)"/>
<circle cx="18" cy="114" r="2" fill="var(--color-rose-3-2)"/>
<circle cx="26" cy="114" r="2" fill="var(--color-rose-3-2)"/>
<circle cx="26" cy="122" r="2" fill="var(--color-rose-3-2)"/>
<circle cx="18" cy="122" r="2" fill="var(--color-rose-3-2)"/>
<circle cx="18" cy="130" r="2" fill="var(--color-rose-3-2)"/>
<circle cx="26" cy="130" r="2" fill="var(--color-rose-3-2)"/>
<circle cx="26" cy="138" r="2" fill="var(--color-rose-3-2)"/>
<circle cx="18" cy="138" r="2" fill="var(--color-rose-3-2)"/>
<circle cx="2" cy="42" r="2" fill="var(--color-rose-3-2)"/>
<circle cx="10" cy="42" r="2" fill="var(--color-rose-3-2)"/>
<circle cx="10" cy="50" r="2" fill="var(--color-rose-3-2)"/>
<circle cx="2" cy="50" r="2" fill="var(--color-rose-3-2)"/>
<circle cx="2" cy="58" r="2" fill="var(--color-rose-3-2)"/>
<circle cx="10" cy="58" r="2" fill="var(--color-rose-3-2)"/>
<circle cx="10" cy="66" r="2" fill="var(--color-rose-3-2)"/>
<circle cx="2" cy="66" r="2" fill="var(--color-rose-3-2)"/>
</svg>
