<svg width="417" height="207" viewBox="0 0 417 207" fill="none" xmlns="http://www.w3.org/2000/svg">
<rect width="417" height="207" fill="#E5E5E5"/>
<rect x="49" y="8" width="62" height="180" fill="#C4C4C4"/>
<rect x="111" y="8" width="88" height="180" fill="#C4C4C4"/>
<rect x="192" y="8" width="88" height="158" fill="#C4C4C4"/>
<rect x="280" y="8" width="88" height="180" fill="#C4C4C4"/>
<rect x="111" width="136" height="76" fill="#C4C4C4"/>
<rect x="87" y="195" width="160" height="12" fill="#C4C4C4"/>
<path d="M48.8577 7.95932L188.258 131.721L0.577295 188.011L48.8577 7.95932Z" fill="#C4C4C4"/>
<path d="M98.7669 29.7572L196.737 188.349H0.796616L98.7669 29.7572Z" fill="#C4C4C4"/>
<path d="M48.8577 7.95932L188.258 131.721L0.577295 188.011L48.8577 7.95932Z" fill="#C4C4C4"/>
<path d="M98.7669 29.7572L196.737 188.349H0.796616L98.7669 29.7572Z" fill="#C4C4C4"/>
<path d="M368.758 188.222L228.882 64.9985L416.345 7.9865L368.758 188.222Z" fill="#C4C4C4"/>
<path d="M318.765 166.617L220.185 8.40363L416.124 7.64915L318.765 166.617Z" fill="#C4C4C4"/>
<path d="M368.758 188.222L228.882 64.9985L416.345 7.9865L368.758 188.222Z" fill="#C4C4C4"/>
<path d="M318.765 166.617L220.185 8.40363L416.124 7.64915L318.765 166.617Z" fill="#C4C4C4"/>
</svg>
