<svg width="433" height="198" viewBox="0 0 433 198" fill="none" xmlns="http://www.w3.org/2000/svg">
<rect width="433" height="198" fill="#E5E5E5"/>
<circle cx="423" cy="3" r="2" fill="#C4C4C4"/>
<circle cx="431" cy="3" r="2" fill="#C4C4C4"/>
<circle cx="429" cy="11" r="2" fill="#C4C4C4"/>
<circle cx="421" cy="11" r="2" fill="#C4C4C4"/>
<circle cx="419" cy="19" r="2" fill="#C4C4C4"/>
<circle cx="417" cy="27" r="2" fill="#C4C4C4"/>
<circle cx="409" cy="75" r="2" fill="#C4C4C4"/>
<circle cx="417" cy="75" r="2" fill="#C4C4C4"/>
<circle cx="415" cy="83" r="2" fill="#C4C4C4"/>
<circle cx="407" cy="83" r="2" fill="#C4C4C4"/>
<circle cx="405" cy="91" r="2" fill="#C4C4C4"/>
<circle cx="403" cy="99" r="2" fill="#C4C4C4"/>
<circle cx="396" cy="137" r="2" fill="#C4C4C4"/>
<circle cx="402" cy="113" r="2" fill="#C4C4C4"/>
<circle cx="392" cy="121" r="2" fill="#C4C4C4"/>
<circle cx="400" cy="121" r="2" fill="#C4C4C4"/>
<circle cx="398" cy="129" r="2" fill="#C4C4C4"/>
<circle cx="390" cy="129" r="2" fill="#C4C4C4"/>
<circle cx="423" cy="51" r="2" fill="#C4C4C4"/>
<circle cx="421" cy="59" r="2" fill="#C4C4C4"/>
<circle cx="419" cy="67" r="2" fill="#C4C4C4"/>
<circle cx="411" cy="67" r="2" fill="#C4C4C4"/>
<rect x="49" y="1" width="320" height="180" fill="#C4C4C4"/>
<rect x="141" y="186" width="240" height="12" fill="#C4C4C4"/>
<rect x="370.326" y="194.784" width="56.6942" height="12" transform="rotate(-75.0829 370.326 194.784)" fill="#C4C4C4"/>
<path d="M48.8577 0.95932L188.258 124.721L0.577295 181.011L48.8577 0.95932Z" fill="#C4C4C4"/>
<path d="M98.7669 22.7572L196.737 181.349H0.796616L98.7669 22.7572Z" fill="#C4C4C4"/>
<path d="M48.8577 0.95932L188.258 124.721L0.577295 181.011L48.8577 0.95932Z" fill="#C4C4C4"/>
<path d="M98.7669 22.7572L196.737 181.349H0.796616L98.7669 22.7572Z" fill="#C4C4C4"/>
<path d="M368.758 181.222L228.882 57.9985L416.345 0.986497L368.758 181.222Z" fill="#C4C4C4"/>
<path d="M318.765 159.617L220.185 1.40363L416.124 0.649146L318.765 159.617Z" fill="#C4C4C4"/>
<path d="M368.758 181.222L228.882 57.9985L416.345 0.986497L368.758 181.222Z" fill="#C4C4C4"/>
<path d="M318.765 159.617L220.185 1.40363L416.124 0.649146L318.765 159.617Z" fill="#C4C4C4"/>
</svg>
