<svg width="536" height="38" viewBox="0 0 536 38" fill="none" xmlns="http://www.w3.org/2000/svg">
<path d="M19.0742 14.9648H7.58984V9.88672H19.0742V14.9648ZM19.0742 5.80469H7.62891C6.9388 5.80469 6.41797 5.98047 6.06641 6.33203C5.71484 6.67057 5.53906 7.17188 5.53906 7.83594V31H0.460938V7.83594C0.460938 6.96354 0.571615 6.18229 0.792969 5.49219C1.01432 4.80208 1.30729 4.19661 1.67188 3.67578C2.04948 3.14193 2.47917 2.69271 2.96094 2.32812C3.44271 1.95052 3.94401 1.64453 4.46484 1.41016C4.9987 1.17578 5.53255 1.00651 6.06641 0.902344C6.60026 0.785156 7.10807 0.726562 7.58984 0.726562H19.0742V5.80469ZM44.7734 14.9648H33.3477C32.6576 14.9648 32.1367 15.1406 31.7852 15.4922C31.4336 15.8307 31.2578 16.332 31.2578 16.9961V31H26.1797V16.9961C26.1797 16.1237 26.2904 15.3424 26.5117 14.6523C26.7331 13.9622 27.026 13.3568 27.3906 12.8359C27.7682 12.3021 28.1979 11.8529 28.6797 11.4883C29.1615 11.1107 29.6628 10.8047 30.1836 10.5703C30.7174 10.3359 31.2513 10.1667 31.7852 10.0625C32.332 9.94531 32.8398 9.88672 33.3086 9.88672H44.7734V14.9648ZM75.0234 23.8711C75.0234 24.7435 74.9128 25.5312 74.6914 26.2344C74.4701 26.9245 74.1771 27.5365 73.8125 28.0703C73.4479 28.5911 73.0247 29.0404 72.543 29.418C72.0612 29.7826 71.5534 30.082 71.0195 30.3164C70.4987 30.5508 69.9648 30.7266 69.418 30.8438C68.8841 30.9479 68.3763 31 67.8945 31H58.7344C58.0312 31 57.263 30.8763 56.4297 30.6289C55.5964 30.3815 54.8216 29.9779 54.1055 29.418C53.4023 28.8451 52.8099 28.1094 52.3281 27.2109C51.8594 26.2995 51.625 25.1862 51.625 23.8711V16.9961C51.625 15.694 51.8594 14.5938 52.3281 13.6953C52.8099 12.7839 53.4023 12.0482 54.1055 11.4883C54.8216 10.9154 55.5964 10.5052 56.4297 10.2578C57.263 10.0104 58.0312 9.88672 58.7344 9.88672H67.8945C69.1966 9.88672 70.3034 10.1211 71.2148 10.5898C72.1263 11.0586 72.862 11.651 73.4219 12.3672C73.9818 13.0703 74.3854 13.8385 74.6328 14.6719C74.8932 15.5052 75.0234 16.2799 75.0234 16.9961V23.8711ZM69.9453 17.0352C69.9453 16.332 69.7695 15.8112 69.418 15.4727C69.0664 15.1341 68.5586 14.9648 67.8945 14.9648H58.7734C58.0964 14.9648 57.582 15.1406 57.2305 15.4922C56.8789 15.8307 56.7031 16.332 56.7031 16.9961V23.8711C56.7031 24.5352 56.8789 25.043 57.2305 25.3945C57.582 25.7461 58.0964 25.9219 58.7734 25.9219H67.8945C68.5846 25.9219 69.099 25.7461 69.4375 25.3945C69.776 25.043 69.9453 24.5352 69.9453 23.8711V17.0352ZM106.758 31H101.68V19.2812C101.68 18.6172 101.562 18.0247 101.328 17.5039C101.107 16.9701 100.801 16.5143 100.41 16.1367C100.02 15.7591 99.5573 15.4727 99.0234 15.2773C98.5026 15.069 97.9362 14.9648 97.3242 14.9648H88.4375V31H83.3594V12.4062C83.3594 12.0547 83.4245 11.7292 83.5547 11.4297C83.6849 11.1172 83.8672 10.8503 84.1016 10.6289C84.3359 10.3945 84.6094 10.2122 84.9219 10.082C85.2344 9.95182 85.5664 9.88672 85.918 9.88672H97.3633C98.0013 9.88672 98.6719 9.95833 99.375 10.1016C100.091 10.2448 100.794 10.4792 101.484 10.8047C102.188 11.1172 102.852 11.5208 103.477 12.0156C104.115 12.4974 104.674 13.0898 105.156 13.793C105.651 14.4831 106.042 15.2839 106.328 16.1953C106.615 17.1068 106.758 18.1354 106.758 19.2812V31ZM133.785 14.9648H124.918V31H119.781V14.9648H113.18V9.88672H119.781V2.99219H124.918V9.88672H133.785V14.9648ZM159.328 19.2812H141.008V14.7109H159.328V19.2812ZM190.691 16.8789C190.691 17.582 190.568 18.3438 190.32 19.1641C190.073 19.9714 189.669 20.7266 189.109 21.4297C188.562 22.1198 187.84 22.6992 186.941 23.168C186.056 23.6367 184.975 23.8711 183.699 23.8711H174.539V19.0469H183.699C184.389 19.0469 184.923 18.8385 185.301 18.4219C185.678 17.9922 185.867 17.4648 185.867 16.8398C185.867 16.1758 185.652 15.6549 185.223 15.2773C184.806 14.8997 184.298 14.7109 183.699 14.7109H174.539C173.849 14.7109 173.315 14.9258 172.938 15.3555C172.56 15.7721 172.371 16.293 172.371 16.918V24.0078C172.371 24.6849 172.579 25.2122 172.996 25.5898C173.426 25.9674 173.953 26.1562 174.578 26.1562H183.699V31H174.539C173.836 31 173.074 30.8763 172.254 30.6289C171.447 30.3815 170.691 29.9844 169.988 29.4375C169.298 28.8776 168.719 28.1549 168.25 27.2695C167.781 26.3711 167.547 25.2839 167.547 24.0078V16.8789C167.547 16.1758 167.671 15.4206 167.918 14.6133C168.165 13.793 168.562 13.0378 169.109 12.3477C169.669 11.6445 170.392 11.0586 171.277 10.5898C172.176 10.1211 173.263 9.88672 174.539 9.88672H183.699C184.402 9.88672 185.158 10.0104 185.965 10.2578C186.785 10.5052 187.54 10.9089 188.23 11.4688C188.934 12.0156 189.52 12.7383 189.988 13.6367C190.457 14.5221 190.691 15.6029 190.691 16.8789ZM221.508 31H216.43V19.2812C216.43 18.6172 216.312 18.0247 216.078 17.5039C215.857 16.9701 215.551 16.5143 215.16 16.1367C214.77 15.7591 214.307 15.4727 213.773 15.2773C213.253 15.069 212.686 14.9648 212.074 14.9648H203.188V31H198.109V12.4062C198.109 12.0547 198.174 11.7292 198.305 11.4297C198.435 11.1172 198.617 10.8503 198.852 10.6289C199.086 10.3945 199.359 10.2122 199.672 10.082C199.984 9.95182 200.316 9.88672 200.668 9.88672H212.113C212.751 9.88672 213.422 9.95833 214.125 10.1016C214.841 10.2448 215.544 10.4792 216.234 10.8047C216.938 11.1172 217.602 11.5208 218.227 12.0156C218.865 12.4974 219.424 13.0898 219.906 13.793C220.401 14.4831 220.792 15.2839 221.078 16.1953C221.365 17.1068 221.508 18.1354 221.508 19.2812V31ZM253.125 23.8711C253.125 24.7435 253.014 25.5312 252.793 26.2344C252.572 26.9245 252.279 27.5365 251.914 28.0703C251.549 28.5911 251.126 29.0404 250.645 29.418C250.163 29.7826 249.655 30.082 249.121 30.3164C248.6 30.5508 248.066 30.7266 247.52 30.8438C246.986 30.9479 246.478 31 245.996 31H236.836C235.964 31 235.182 30.8893 234.492 30.668C233.802 30.4466 233.19 30.1536 232.656 29.7891C232.135 29.4115 231.686 28.9818 231.309 28.5C230.944 28.0182 230.645 27.5169 230.41 26.9961C230.176 26.4622 230 25.9284 229.883 25.3945C229.779 24.8477 229.727 24.3398 229.727 23.8711V16.9961C229.727 15.694 229.961 14.5938 230.43 13.6953C230.911 12.7839 231.504 12.0482 232.207 11.4883C232.923 10.9154 233.698 10.5052 234.531 10.2578C235.365 10.0104 236.133 9.88672 236.836 9.88672H245.996V14.9648H236.875C236.198 14.9648 235.684 15.1406 235.332 15.4922C234.98 15.8307 234.805 16.332 234.805 16.9961V23.832C234.805 24.5221 234.974 25.043 235.312 25.3945C235.664 25.7461 236.172 25.9219 236.836 25.9219H245.996C246.686 25.9219 247.201 25.7461 247.539 25.3945C247.878 25.043 248.047 24.5352 248.047 23.8711V0.960938H253.125V23.8711ZM307.492 19.2812C307.492 20.987 307.193 22.556 306.594 23.9883C306.008 25.4206 305.194 26.6576 304.152 27.6992C303.111 28.7279 301.874 29.5352 300.441 30.1211C299.009 30.707 297.453 31 295.773 31H282.062C281.698 31 281.359 30.9349 281.047 30.8047C280.734 30.6745 280.461 30.4987 280.227 30.2773C280.005 30.043 279.829 29.7695 279.699 29.457C279.569 29.1445 279.504 28.806 279.504 28.4414V5.55078C279.504 5.19922 279.569 4.86719 279.699 4.55469C279.829 4.24219 280.005 3.96875 280.227 3.73438C280.461 3.5 280.734 3.31771 281.047 3.1875C281.359 3.05729 281.698 2.99219 282.062 2.99219H295.773C297.453 2.99219 299.009 3.28516 300.441 3.87109C301.874 4.45703 303.111 5.27083 304.152 6.3125C305.194 7.34115 306.008 8.57812 306.594 10.0234C307.193 11.4557 307.492 13.0182 307.492 14.7109V19.2812ZM302.414 14.7109C302.414 13.7214 302.251 12.8164 301.926 11.9961C301.613 11.1758 301.164 10.4792 300.578 9.90625C299.992 9.32031 299.289 8.87109 298.469 8.55859C297.661 8.23307 296.763 8.07031 295.773 8.07031H284.582V25.9219H295.773C296.763 25.9219 297.661 25.7656 298.469 25.4531C299.289 25.1276 299.992 24.6784 300.578 24.1055C301.164 23.5195 301.613 22.8229 301.926 22.0156C302.251 21.1953 302.414 20.2839 302.414 19.2812V14.7109ZM338.621 16.8789C338.621 17.582 338.497 18.3438 338.25 19.1641C338.003 19.9714 337.599 20.7266 337.039 21.4297C336.492 22.1198 335.77 22.6992 334.871 23.168C333.986 23.6367 332.905 23.8711 331.629 23.8711H322.469V19.0469H331.629C332.319 19.0469 332.853 18.8385 333.23 18.4219C333.608 17.9922 333.797 17.4648 333.797 16.8398C333.797 16.1758 333.582 15.6549 333.152 15.2773C332.736 14.8997 332.228 14.7109 331.629 14.7109H322.469C321.779 14.7109 321.245 14.9258 320.867 15.3555C320.49 15.7721 320.301 16.293 320.301 16.918V24.0078C320.301 24.6849 320.509 25.2122 320.926 25.5898C321.355 25.9674 321.883 26.1562 322.508 26.1562H331.629V31H322.469C321.766 31 321.004 30.8763 320.184 30.6289C319.376 30.3815 318.621 29.9844 317.918 29.4375C317.228 28.8776 316.648 28.1549 316.18 27.2695C315.711 26.3711 315.477 25.2839 315.477 24.0078V16.8789C315.477 16.1758 315.6 15.4206 315.848 14.6133C316.095 13.793 316.492 13.0378 317.039 12.3477C317.599 11.6445 318.322 11.0586 319.207 10.5898C320.105 10.1211 321.193 9.88672 322.469 9.88672H331.629C332.332 9.88672 333.087 10.0104 333.895 10.2578C334.715 10.5052 335.47 10.9089 336.16 11.4688C336.863 12.0156 337.449 12.7383 337.918 13.6367C338.387 14.5221 338.621 15.6029 338.621 16.8789ZM371.234 9.88672C370.661 11.6706 369.991 13.4284 369.223 15.1602C368.454 16.8919 367.569 18.5456 366.566 20.1211C365.577 21.6836 364.464 23.1354 363.227 24.4766C362.003 25.8047 360.642 26.957 359.145 27.9336C357.66 28.8971 356.039 29.6589 354.281 30.2188C352.536 30.7656 350.642 31.0391 348.598 31.0391C348.246 31.0391 347.914 30.974 347.602 30.8438C347.289 30.7135 347.016 30.5378 346.781 30.3164C346.547 30.082 346.365 29.8151 346.234 29.5156C346.104 29.2031 346.039 28.8711 346.039 28.5195V9.88672H351.117V25.7656C352.354 25.7656 353.539 25.4987 354.672 24.9648C355.818 24.431 356.898 23.7279 357.914 22.8555C358.93 21.9701 359.867 20.9674 360.727 19.8477C361.599 18.7279 362.374 17.582 363.051 16.4102C363.728 15.2253 364.301 14.0664 364.77 12.9336C365.251 11.8008 365.609 10.7852 365.844 9.88672H371.234ZM399.785 16.8789C399.785 17.582 399.661 18.3438 399.414 19.1641C399.167 19.9714 398.763 20.7266 398.203 21.4297C397.656 22.1198 396.934 22.6992 396.035 23.168C395.15 23.6367 394.069 23.8711 392.793 23.8711H383.633V19.0469H392.793C393.483 19.0469 394.017 18.8385 394.395 18.4219C394.772 17.9922 394.961 17.4648 394.961 16.8398C394.961 16.1758 394.746 15.6549 394.316 15.2773C393.9 14.8997 393.392 14.7109 392.793 14.7109H383.633C382.943 14.7109 382.409 14.9258 382.031 15.3555C381.654 15.7721 381.465 16.293 381.465 16.918V24.0078C381.465 24.6849 381.673 25.2122 382.09 25.5898C382.52 25.9674 383.047 26.1562 383.672 26.1562H392.793V31H383.633C382.93 31 382.168 30.8763 381.348 30.6289C380.54 30.3815 379.785 29.9844 379.082 29.4375C378.392 28.8776 377.812 28.1549 377.344 27.2695C376.875 26.3711 376.641 25.2839 376.641 24.0078V16.8789C376.641 16.1758 376.764 15.4206 377.012 14.6133C377.259 13.793 377.656 13.0378 378.203 12.3477C378.763 11.6445 379.486 11.0586 380.371 10.5898C381.27 10.1211 382.357 9.88672 383.633 9.88672H392.793C393.496 9.88672 394.251 10.0104 395.059 10.2578C395.879 10.5052 396.634 10.9089 397.324 11.4688C398.027 12.0156 398.613 12.7383 399.082 13.6367C399.551 14.5221 399.785 15.6029 399.785 16.8789ZM416.48 31H414.215C413.486 31 412.704 30.8763 411.871 30.6289C411.051 30.3815 410.283 29.9779 409.566 29.418C408.85 28.8451 408.258 28.1094 407.789 27.2109C407.32 26.2995 407.086 25.1862 407.086 23.8711V0.960938H412.164V23.8711C412.164 24.4961 412.359 24.9974 412.75 25.375C413.141 25.7396 413.629 25.9219 414.215 25.9219H416.48V31ZM446.711 23.8711C446.711 24.7435 446.6 25.5312 446.379 26.2344C446.158 26.9245 445.865 27.5365 445.5 28.0703C445.135 28.5911 444.712 29.0404 444.23 29.418C443.749 29.7826 443.241 30.082 442.707 30.3164C442.186 30.5508 441.652 30.7266 441.105 30.8438C440.572 30.9479 440.064 31 439.582 31H430.422C429.719 31 428.951 30.8763 428.117 30.6289C427.284 30.3815 426.509 29.9779 425.793 29.418C425.09 28.8451 424.497 28.1094 424.016 27.2109C423.547 26.2995 423.312 25.1862 423.312 23.8711V16.9961C423.312 15.694 423.547 14.5938 424.016 13.6953C424.497 12.7839 425.09 12.0482 425.793 11.4883C426.509 10.9154 427.284 10.5052 428.117 10.2578C428.951 10.0104 429.719 9.88672 430.422 9.88672H439.582C440.884 9.88672 441.991 10.1211 442.902 10.5898C443.814 11.0586 444.549 11.651 445.109 12.3672C445.669 13.0703 446.073 13.8385 446.32 14.6719C446.581 15.5052 446.711 16.2799 446.711 16.9961V23.8711ZM441.633 17.0352C441.633 16.332 441.457 15.8112 441.105 15.4727C440.754 15.1341 440.246 14.9648 439.582 14.9648H430.461C429.784 14.9648 429.27 15.1406 428.918 15.4922C428.566 15.8307 428.391 16.332 428.391 16.9961V23.8711C428.391 24.5352 428.566 25.043 428.918 25.3945C429.27 25.7461 429.784 25.9219 430.461 25.9219H439.582C440.272 25.9219 440.786 25.7461 441.125 25.3945C441.464 25.043 441.633 24.5352 441.633 23.8711V17.0352ZM478.328 23.8711C478.328 24.7435 478.217 25.5312 477.996 26.2344C477.775 26.9245 477.482 27.5365 477.117 28.0703C476.753 28.5911 476.329 29.0404 475.848 29.418C475.366 29.7826 474.858 30.082 474.324 30.3164C473.803 30.5508 473.276 30.7266 472.742 30.8438C472.208 30.9479 471.701 31 471.219 31H462.059V25.9219H471.219C471.896 25.9219 472.404 25.7461 472.742 25.3945C473.081 25.043 473.25 24.5352 473.25 23.8711V17.0352C473.25 16.332 473.074 15.8112 472.723 15.4727C472.384 15.1341 471.883 14.9648 471.219 14.9648H462.098C461.408 14.9648 460.887 15.1406 460.535 15.4922C460.184 15.8307 460.008 16.332 460.008 16.9961V37.6016H454.93V16.9961C454.93 16.1237 455.04 15.3424 455.262 14.6523C455.483 13.9622 455.776 13.3568 456.141 12.8359C456.518 12.3021 456.948 11.8529 457.43 11.4883C457.911 11.1107 458.413 10.8047 458.934 10.5703C459.467 10.3359 460.001 10.1667 460.535 10.0625C461.082 9.94531 461.59 9.88672 462.059 9.88672H471.219C472.091 9.88672 472.872 9.9974 473.562 10.2188C474.253 10.4401 474.858 10.7331 475.379 11.0977C475.913 11.4622 476.362 11.8854 476.727 12.3672C477.104 12.849 477.41 13.3568 477.645 13.8906C477.879 14.4115 478.048 14.9388 478.152 15.4727C478.27 16.0065 478.328 16.5143 478.328 16.9961V23.8711ZM509.379 16.8789C509.379 17.582 509.255 18.3438 509.008 19.1641C508.76 19.9714 508.357 20.7266 507.797 21.4297C507.25 22.1198 506.527 22.6992 505.629 23.168C504.743 23.6367 503.663 23.8711 502.387 23.8711H493.227V19.0469H502.387C503.077 19.0469 503.611 18.8385 503.988 18.4219C504.366 17.9922 504.555 17.4648 504.555 16.8398C504.555 16.1758 504.34 15.6549 503.91 15.2773C503.493 14.8997 502.986 14.7109 502.387 14.7109H493.227C492.536 14.7109 492.003 14.9258 491.625 15.3555C491.247 15.7721 491.059 16.293 491.059 16.918V24.0078C491.059 24.6849 491.267 25.2122 491.684 25.5898C492.113 25.9674 492.641 26.1562 493.266 26.1562H502.387V31H493.227C492.523 31 491.762 30.8763 490.941 30.6289C490.134 30.3815 489.379 29.9844 488.676 29.4375C487.986 28.8776 487.406 28.1549 486.938 27.2695C486.469 26.3711 486.234 25.2839 486.234 24.0078V16.8789C486.234 16.1758 486.358 15.4206 486.605 14.6133C486.853 13.793 487.25 13.0378 487.797 12.3477C488.357 11.6445 489.079 11.0586 489.965 10.5898C490.863 10.1211 491.951 9.88672 493.227 9.88672H502.387C503.09 9.88672 503.845 10.0104 504.652 10.2578C505.473 10.5052 506.228 10.9089 506.918 11.4688C507.621 12.0156 508.207 12.7383 508.676 13.6367C509.145 14.5221 509.379 15.6029 509.379 16.8789ZM535.273 14.9648H523.848C523.158 14.9648 522.637 15.1406 522.285 15.4922C521.934 15.8307 521.758 16.332 521.758 16.9961V31H516.68V16.9961C516.68 16.1237 516.79 15.3424 517.012 14.6523C517.233 13.9622 517.526 13.3568 517.891 12.8359C518.268 12.3021 518.698 11.8529 519.18 11.4883C519.661 11.1107 520.163 10.8047 520.684 10.5703C521.217 10.3359 521.751 10.1667 522.285 10.0625C522.832 9.94531 523.34 9.88672 523.809 9.88672H535.273V14.9648Z"/>
</svg>
