<svg width="452" height="102" viewBox="0 0 452 102" fill="none" xmlns="http://www.w3.org/2000/svg">
<g filter="url(#filter0_d_2_3)">
<path d="M86.8125 69.1875C86.8125 72.4375 86.25 75.4583 85.125 78.25C84 81.0417 82.4167 83.4583 80.375 85.5C78.375 87.5417 75.9792 89.1458 73.1875 90.3125C70.3958 91.4375 67.3542 92 64.0625 92H4.5V75.75H64.0625C66.0625 75.75 67.625 75.1875 68.75 74.0625C69.875 72.8958 70.4375 71.2708 70.4375 69.1875V2.375H86.8125V69.1875ZM206.05 83.8125C206.05 84.9792 205.842 86.0625 205.425 87.0625C205.008 88.0625 204.425 88.9375 203.675 89.6875C202.925 90.3958 202.05 90.9583 201.05 91.375C200.05 91.7917 198.988 92 197.863 92H161.238C157.779 92 154.279 91.625 150.738 90.875C147.196 90.125 143.758 88.9792 140.425 87.4375C137.133 85.8542 134.029 83.8542 131.113 81.4375C128.196 79.0208 125.633 76.1667 123.425 72.875C121.258 69.5417 119.55 65.75 118.3 61.5C117.05 57.2083 116.425 52.4375 116.425 47.1875V2.375H132.675V47.1875C132.675 51.7708 133.3 55.6458 134.55 58.8125C135.842 61.9792 137.467 64.625 139.425 66.75C141.383 68.875 143.529 70.5417 145.863 71.75C148.196 72.9583 150.404 73.8542 152.488 74.4375C154.613 75.0208 156.467 75.3958 158.05 75.5625C159.675 75.6875 160.738 75.75 161.238 75.75H189.8V2.375H206.05V83.8125ZM325.725 92H309.475V70H252.35V92H236.1V47.1875C236.1 40.6458 237.225 34.625 239.475 29.125C241.725 23.625 244.85 18.8958 248.85 14.9375C252.85 10.9792 257.579 7.89583 263.038 5.6875C268.496 3.47917 274.454 2.375 280.913 2.375H317.538C318.663 2.375 319.725 2.58333 320.725 3C321.725 3.41667 322.6 4 323.35 4.75C324.1 5.5 324.683 6.375 325.1 7.375C325.517 8.375 325.725 9.4375 325.725 10.5625V92ZM252.35 53.75H309.475V18.625H280.913C280.413 18.625 279.35 18.7083 277.725 18.875C276.142 19 274.288 19.3542 272.163 19.9375C270.079 20.5208 267.871 21.4167 265.538 22.625C263.204 23.8333 261.058 25.5 259.1 27.625C257.142 29.75 255.517 32.4167 254.225 35.625C252.975 38.7917 252.35 42.6458 252.35 47.1875V53.75ZM447.025 85.0625C447.025 86.2292 446.796 87.3125 446.337 88.3125C445.921 89.3125 445.337 90.1875 444.587 90.9375C443.879 91.6458 443.025 92.2083 442.025 92.625C441.025 93.0417 439.962 93.25 438.837 93.25C437.837 93.25 436.817 93.0625 435.775 92.6875C434.775 92.3125 433.879 91.7083 433.087 90.875L373.712 28.875V92H357.462V9.3125C357.462 7.64583 357.921 6.14583 358.837 4.8125C359.796 3.4375 361.004 2.41667 362.462 1.75C364.004 1.125 365.587 0.979167 367.212 1.3125C368.837 1.60417 370.233 2.35417 371.4 3.5625L430.775 65.5V2.375H447.025V85.0625Z"/>
<path d="M80.375 85.5L79.3143 84.4393L79.3089 84.4448L79.3035 84.4503L80.375 85.5ZM73.1875 90.3125L73.7482 91.7038L73.7571 91.7002L73.7659 91.6965L73.1875 90.3125ZM4.5 92H3V93.5H4.5V92ZM4.5 75.75V74.25H3V75.75H4.5ZM68.75 74.0625L69.8107 75.1232L69.8203 75.1135L69.8298 75.1037L68.75 74.0625ZM70.4375 2.375V0.875H68.9375V2.375H70.4375ZM86.8125 2.375H88.3125V0.875H86.8125V2.375ZM85.3125 69.1875C85.3125 72.2608 84.7814 75.0897 83.7337 77.6893L86.5163 78.8107C87.7186 75.827 88.3125 72.6142 88.3125 69.1875H85.3125ZM83.7337 77.6893C82.6809 80.3019 81.2072 82.5464 79.3143 84.4393L81.4357 86.5607C83.6261 84.3702 85.3191 81.7814 86.5163 78.8107L83.7337 77.6893ZM79.3035 84.4503C77.452 86.3404 75.2267 87.8346 72.6091 88.9285L73.7659 91.6965C76.7316 90.4571 79.298 88.7429 81.4465 86.5497L79.3035 84.4503ZM72.6268 88.9212C70.0294 89.968 67.1801 90.5 64.0625 90.5V93.5C67.5282 93.5 70.7623 92.907 73.7482 91.7038L72.6268 88.9212ZM64.0625 90.5H4.5V93.5H64.0625V90.5ZM6 92V75.75H3V92H6ZM4.5 77.25H64.0625V74.25H4.5V77.25ZM64.0625 77.25C66.3525 77.25 68.3363 76.5975 69.8107 75.1232L67.6893 73.0018C66.9137 73.7775 65.7725 74.25 64.0625 74.25V77.25ZM69.8298 75.1037C71.295 73.5842 71.9375 71.5439 71.9375 69.1875H68.9375C68.9375 70.9978 68.455 72.2075 67.6702 73.0213L69.8298 75.1037ZM71.9375 69.1875V2.375H68.9375V69.1875H71.9375ZM70.4375 3.875H86.8125V0.875H70.4375V3.875ZM85.3125 2.375V69.1875H88.3125V2.375H85.3125ZM203.675 89.6875L204.705 90.778L204.721 90.7633L204.736 90.7482L203.675 89.6875ZM140.425 87.4375L139.775 88.7893L139.785 88.7942L139.795 88.7989L140.425 87.4375ZM123.425 72.875L122.167 73.6925L122.173 73.7016L122.179 73.7107L123.425 72.875ZM118.3 61.5L116.86 61.9195L116.861 61.9232L118.3 61.5ZM116.425 2.375V0.875H114.925V2.375H116.425ZM132.675 2.375H134.175V0.875H132.675V2.375ZM134.55 58.8125L133.155 59.3632L133.158 59.3712L133.161 59.379L134.55 58.8125ZM139.425 66.75L138.322 67.7665L139.425 66.75ZM152.488 74.4375L152.083 75.882L152.09 75.884L152.488 74.4375ZM158.05 75.5625L157.893 77.0543L157.914 77.0565L157.935 77.0581L158.05 75.5625ZM189.8 75.75V77.25H191.3V75.75H189.8ZM189.8 2.375V0.875H188.3V2.375H189.8ZM206.05 2.375H207.55V0.875H206.05V2.375ZM204.55 83.8125C204.55 84.7965 204.375 85.6821 204.04 86.4856L206.81 87.6394C207.308 86.4429 207.55 85.1618 207.55 83.8125H204.55ZM204.04 86.4856C203.697 87.3087 203.223 88.0184 202.614 88.6268L204.736 90.7482C205.627 89.8566 206.319 88.8163 206.81 87.6394L204.04 86.4856ZM202.645 88.597C202.034 89.1745 201.314 89.64 200.473 89.9904L201.627 92.7596C202.786 92.2767 203.816 91.6172 204.705 90.778L202.645 88.597ZM200.473 89.9904C199.663 90.328 198.797 90.5 197.863 90.5V93.5C199.178 93.5 200.437 93.2554 201.627 92.7596L200.473 89.9904ZM197.863 90.5H161.238V93.5H197.863V90.5ZM161.238 90.5C157.888 90.5 154.493 90.1369 151.048 89.4075L150.427 92.3425C154.066 93.1131 157.67 93.5 161.238 93.5V90.5ZM151.048 89.4075C147.618 88.6812 144.287 87.5712 141.055 86.0761L139.795 88.7989C143.229 90.3871 146.774 91.5688 150.427 92.3425L151.048 89.4075ZM141.075 86.0857C137.897 84.5572 134.896 82.6242 132.07 80.2825L130.155 82.5925C133.163 85.0841 136.369 87.1511 139.775 88.7893L141.075 86.0857ZM132.07 80.2825C129.269 77.962 126.802 75.2168 124.671 72.0393L122.179 73.7107C124.464 77.1165 127.123 80.0796 130.155 82.5925L132.07 80.2825ZM124.683 72.0575C122.604 68.8591 120.953 65.203 119.739 61.0768L116.861 61.9232C118.147 66.297 119.913 70.2242 122.167 73.6925L124.683 72.0575ZM119.74 61.0805C118.536 56.9465 117.925 52.3196 117.925 47.1875H114.925C114.925 52.5554 115.564 57.4702 116.86 61.9195L119.74 61.0805ZM117.925 47.1875V2.375H114.925V47.1875H117.925ZM116.425 3.875H132.675V0.875H116.425V3.875ZM131.175 2.375V47.1875H134.175V2.375H131.175ZM131.175 47.1875C131.175 51.898 131.816 55.972 133.155 59.3632L135.945 58.2618C134.784 55.3197 134.175 51.6436 134.175 47.1875H131.175ZM133.161 59.379C134.508 62.6818 136.222 65.4881 138.322 67.7665L140.528 65.7335C138.711 63.7619 137.175 61.2765 135.939 58.246L133.161 59.379ZM138.322 67.7665C140.387 70.0072 142.67 71.7857 145.173 73.082L146.552 70.418C144.389 69.2976 142.38 67.7428 140.528 65.7335L138.322 67.7665ZM145.173 73.082C147.578 74.3278 149.883 75.2658 152.083 75.8819L152.892 72.9931C150.926 72.4425 148.813 71.5889 146.552 70.418L145.173 73.082ZM152.09 75.884C154.267 76.4814 156.204 76.8765 157.893 77.0543L158.207 74.0707C156.729 73.9152 154.958 73.5603 152.885 72.991L152.09 75.884ZM157.935 77.0581C159.547 77.1821 160.669 77.25 161.238 77.25V74.25C160.806 74.25 159.803 74.1929 158.165 74.0669L157.935 77.0581ZM161.238 77.25H189.8V74.25H161.238V77.25ZM191.3 75.75V2.375H188.3V75.75H191.3ZM189.8 3.875H206.05V0.875H189.8V3.875ZM204.55 2.375V83.8125H207.55V2.375H204.55ZM325.725 92V93.5H327.225V92H325.725ZM309.475 92H307.975V93.5H309.475V92ZM309.475 70H310.975V68.5H309.475V70ZM252.35 70V68.5H250.85V70H252.35ZM252.35 92V93.5H253.85V92H252.35ZM236.1 92H234.6V93.5H236.1V92ZM263.038 5.6875L262.475 4.29699L263.038 5.6875ZM252.35 53.75H250.85V55.25H252.35V53.75ZM309.475 53.75V55.25H310.975V53.75H309.475ZM309.475 18.625H310.975V17.125H309.475V18.625ZM277.725 18.875L277.843 20.3703L277.861 20.369L277.878 20.3672L277.725 18.875ZM272.163 19.9375L271.765 18.491L271.758 18.4931L272.163 19.9375ZM259.1 27.625L257.997 26.6085L259.1 27.625ZM254.225 35.625L252.834 35.0648L252.83 35.0743L254.225 35.625ZM325.725 90.5H309.475V93.5H325.725V90.5ZM310.975 92V70H307.975V92H310.975ZM309.475 68.5H252.35V71.5H309.475V68.5ZM250.85 70V92H253.85V70H250.85ZM252.35 90.5H236.1V93.5H252.35V90.5ZM237.6 92V47.1875H234.6V92H237.6ZM237.6 47.1875C237.6 40.8209 238.694 34.9953 240.863 29.6929L238.087 28.5571C235.756 34.2547 234.6 40.4708 234.6 47.1875H237.6ZM240.863 29.6929C243.041 24.3691 246.057 19.8122 249.905 16.0037L247.795 13.8713C243.644 17.9795 240.409 22.8809 238.087 28.5571L240.863 29.6929ZM249.905 16.0037C253.757 12.1914 258.317 9.2154 263.6 7.07801L262.475 4.29699C256.841 6.57626 251.943 9.7669 247.795 13.8713L249.905 16.0037ZM263.6 7.07801C268.863 4.9487 274.628 3.875 280.913 3.875V0.875C274.28 0.875 268.129 2.00963 262.475 4.29699L263.6 7.07801ZM280.913 3.875H317.538V0.875H280.913V3.875ZM317.538 3.875C318.472 3.875 319.338 4.04705 320.148 4.38462L321.302 1.61538C320.112 1.11962 318.853 0.875 317.538 0.875V3.875ZM320.148 4.38462C320.971 4.72757 321.681 5.2022 322.289 5.81066L324.411 3.68934C323.519 2.7978 322.479 2.10576 321.302 1.61538L320.148 4.38462ZM322.289 5.81066C322.898 6.41912 323.372 7.12882 323.715 7.95192L326.485 6.79808C325.994 5.62118 325.302 4.58088 324.411 3.68934L322.289 5.81066ZM323.715 7.95192C324.053 8.76208 324.225 9.62777 324.225 10.5625H327.225C327.225 9.24723 326.98 7.98792 326.485 6.79808L323.715 7.95192ZM324.225 10.5625V92H327.225V10.5625H324.225ZM252.35 55.25H309.475V52.25H252.35V55.25ZM310.975 53.75V18.625H307.975V53.75H310.975ZM309.475 17.125H280.913V20.125H309.475V17.125ZM280.913 17.125C280.321 17.125 279.179 17.218 277.572 17.3828L277.878 20.3672C279.521 20.1987 280.504 20.125 280.913 20.125V17.125ZM277.607 17.3797C275.901 17.5143 273.949 17.8915 271.765 18.491L272.56 21.384C274.626 20.8169 276.382 20.4857 277.843 20.3703L277.607 17.3797ZM271.758 18.4931C269.558 19.1092 267.253 20.0472 264.848 21.293L266.227 23.957C268.488 22.7861 270.601 21.9325 272.567 21.3819L271.758 18.4931ZM264.848 21.293C262.345 22.5893 260.062 24.3678 257.997 26.6085L260.203 28.6415C262.055 26.6322 264.064 25.0774 266.227 23.957L264.848 21.293ZM257.997 26.6085C255.894 28.8903 254.18 31.7205 252.834 35.0648L255.616 36.1852C256.853 33.1129 258.389 30.6097 260.203 28.6415L257.997 26.6085ZM252.83 35.0743C251.492 38.4641 250.85 42.5167 250.85 47.1875H253.85C253.85 42.775 254.458 39.1192 255.62 36.1757L252.83 35.0743ZM250.85 47.1875V53.75H253.85V47.1875H250.85ZM446.337 88.3125L444.974 87.6875L444.963 87.7114L444.953 87.7356L446.337 88.3125ZM444.587 90.9375L443.527 89.8768L444.587 90.9375ZM442.025 92.625L441.448 91.2404L442.025 92.625ZM435.775 92.6875L435.248 94.092L435.258 94.0955L435.267 94.0988L435.775 92.6875ZM433.087 90.875L434.175 89.8419L434.171 89.8375L433.087 90.875ZM373.712 28.875L374.796 27.8375L372.212 25.14V28.875H373.712ZM373.712 92V93.5H375.212V92H373.712ZM357.462 92H355.962V93.5H357.462V92ZM358.837 4.8125L357.607 3.95479L357.601 3.96271L358.837 4.8125ZM362.462 1.75L361.899 0.359891L361.869 0.372184L361.839 0.385788L362.462 1.75ZM367.212 1.3125L366.911 2.7819L366.929 2.78563L366.947 2.78891L367.212 1.3125ZM371.4 3.5625L372.483 2.52447L372.479 2.52061L371.4 3.5625ZM430.775 65.5L429.692 66.538L432.275 69.2323V65.5H430.775ZM430.775 2.375V0.875H429.275V2.375H430.775ZM447.025 2.375H448.525V0.875H447.025V2.375ZM445.525 85.0625C445.525 86.0268 445.337 86.8954 444.974 87.6875L447.701 88.9375C448.255 87.7296 448.525 86.4316 448.525 85.0625H445.525ZM444.953 87.7356C444.61 88.5587 444.135 89.2684 443.527 89.8768L445.648 91.9982C446.54 91.1066 447.232 90.0663 447.722 88.8894L444.953 87.7356ZM443.527 89.8768C442.968 90.4357 442.282 90.8929 441.448 91.2404L442.602 94.0096C443.768 93.5238 444.79 92.856 445.648 91.9982L443.527 89.8768ZM441.448 91.2404C440.638 91.578 439.772 91.75 438.837 91.75V94.75C440.153 94.75 441.412 94.5054 442.602 94.0096L441.448 91.2404ZM438.837 91.75C438.028 91.75 437.179 91.5988 436.283 91.2762L435.267 94.0988C436.454 94.5262 437.647 94.75 438.837 94.75V91.75ZM436.302 91.283C435.53 90.9937 434.822 90.5234 434.175 89.8419L432 91.9081C432.936 92.8933 434.02 93.6313 435.248 94.092L436.302 91.283ZM434.171 89.8375L374.796 27.8375L372.629 29.9125L432.004 91.9125L434.171 89.8375ZM372.212 28.875V92H375.212V28.875H372.212ZM373.712 90.5H357.462V93.5H373.712V90.5ZM358.962 92V9.3125H355.962V92H358.962ZM358.962 9.3125C358.962 7.93957 359.334 6.7377 360.074 5.66229L357.601 3.96271C356.507 5.55396 355.962 7.35209 355.962 9.3125H358.962ZM360.068 5.67019C360.88 4.50488 361.883 3.6642 363.086 3.11421L361.839 0.385788C360.125 1.16913 358.711 2.37012 357.607 3.95481L360.068 5.67019ZM363.026 3.14011C364.294 2.62593 365.577 2.5082 366.911 2.7819L367.514 -0.156904C365.598 -0.54987 363.714 -0.375932 361.899 0.359891L363.026 3.14011ZM366.947 2.78891C368.256 3.02385 369.369 3.61862 370.321 4.60439L372.479 2.52061C371.098 1.08971 369.419 0.184481 367.477 -0.163907L366.947 2.78891ZM370.317 4.60052L429.692 66.538L431.858 64.462L372.483 2.52448L370.317 4.60052ZM432.275 65.5V2.375H429.275V65.5H432.275ZM430.775 3.875H447.025V0.875H430.775V3.875ZM445.525 2.375V85.0625H448.525V2.375H445.525Z"/>
</g>
<defs>
<filter id="filter0_d_2_3" x="0.5" y="0.8125" width="450.525" height="100.438" filterUnits="userSpaceOnUse" color-interpolation-filters="sRGB">
<feFlood flood-opacity="0" result="BackgroundImageFix"/>
<feColorMatrix in="SourceAlpha" type="matrix" values="0 0 0 0 0 0 0 0 0 0 0 0 0 0 0 0 0 0 127 0" result="hardAlpha"/>
<feOffset dy="4"/>
<feGaussianBlur stdDeviation="2"/>
<feComposite in2="hardAlpha" operator="out"/>
<feColorMatrix type="matrix" values="0 0 0 0 0 0 0 0 0 0 0 0 0 0 0 0 0 0 0.25 0"/>
<feBlend mode="normal" in2="BackgroundImageFix" result="effect1_dropShadow_2_3"/>
<feBlend mode="normal" in="SourceGraphic" in2="effect1_dropShadow_2_3" result="shape"/>
</filter>
</defs>
</svg>
