<svg width="322" height="98" viewBox="0 0 322 98" fill="none" xmlns="http://www.w3.org/2000/svg">
<g filter="url(#filter0_d_2_3)">
<path d="M94.25 81.8125C94.25 82.9792 94.0417 84.0625 93.625 85.0625C93.2083 86.0625 92.625 86.9375 91.875 87.6875C91.125 88.3958 90.25 88.9583 89.25 89.375C88.25 89.7917 87.1875 90 86.0625 90H49.4375C45.9792 90 42.4792 89.625 38.9375 88.875C35.3958 88.125 31.9583 86.9792 28.625 85.4375C25.3333 83.8542 22.2292 81.8542 19.3125 79.4375C16.3958 77.0208 13.8333 74.1667 11.625 70.875C9.45833 67.5417 7.75 63.75 6.5 59.5C5.25 55.2083 4.625 50.4375 4.625 45.1875V0.375H20.875V45.1875C20.875 49.7708 21.5 53.6458 22.75 56.8125C24.0417 59.9792 25.6667 62.625 27.625 64.75C29.5833 66.875 31.7292 68.5417 34.0625 69.75C36.3958 70.9583 38.6042 71.8542 40.6875 72.4375C42.8125 73.0208 44.6667 73.3958 46.25 73.5625C47.875 73.6875 48.9375 73.75 49.4375 73.75H78V0.375H94.25V81.8125ZM199.675 53.375H148.363V37H199.675V53.375ZM206.988 90H148.363C146.113 90 143.654 89.6042 140.988 88.8125C138.321 88.0208 135.842 86.7292 133.55 84.9375C131.3 83.1042 129.404 80.75 127.863 77.875C126.363 74.9583 125.613 71.3958 125.613 67.1875V8.5625C125.613 7.4375 125.821 6.375 126.238 5.375C126.654 4.375 127.217 3.5 127.925 2.75C128.675 2 129.55 1.41667 130.55 1C131.55 0.583333 132.633 0.375 133.8 0.375H206.988V16.625H141.863V67.1875C141.863 69.3125 142.425 70.9375 143.55 72.0625C144.675 73.1875 146.321 73.75 148.488 73.75H206.988V90ZM317.85 90H243.725C242.558 90 241.475 89.7917 240.475 89.375C239.475 88.9583 238.6 88.3958 237.85 87.6875C237.142 86.9375 236.579 86.0625 236.163 85.0625C235.746 84.0625 235.538 82.9792 235.538 81.8125V0.375H251.788V73.75H317.85V90Z"/>
<path d="M91.875 87.6875L92.9049 88.778L92.9205 88.7633L92.9357 88.7482L91.875 87.6875ZM28.625 85.4375L27.9748 86.7893L27.985 86.7942L27.9953 86.7989L28.625 85.4375ZM11.625 70.875L10.3673 71.6925L10.3733 71.7016L10.3794 71.7107L11.625 70.875ZM6.5 59.5L5.05984 59.9195L5.06095 59.9232L6.5 59.5ZM4.625 0.375V-1.125H3.125V0.375H4.625ZM20.875 0.375H22.375V-1.125H20.875V0.375ZM22.75 56.8125L21.3548 57.3632L21.3579 57.3712L21.3611 57.379L22.75 56.8125ZM27.625 64.75L26.522 65.7665L27.625 64.75ZM40.6875 72.4375L40.283 73.882L40.2904 73.884L40.6875 72.4375ZM46.25 73.5625L46.093 75.0543L46.1139 75.0565L46.135 75.0581L46.25 73.5625ZM78 73.75V75.25H79.5V73.75H78ZM78 0.375V-1.125H76.5V0.375H78ZM94.25 0.375H95.75V-1.125H94.25V0.375ZM92.75 81.8125C92.75 82.7965 92.5752 83.6821 92.2404 84.4856L95.0096 85.6394C95.5082 84.4429 95.75 83.1618 95.75 81.8125H92.75ZM92.2404 84.4856C91.8974 85.3087 91.4228 86.0184 90.8143 86.6268L92.9357 88.7482C93.8272 87.8566 94.5192 86.8163 95.0096 85.6394L92.2404 84.4856ZM90.8451 86.597C90.2336 87.1745 89.514 87.64 88.6731 87.9904L89.8269 90.7596C90.986 90.2767 92.0164 89.6172 92.9049 88.778L90.8451 86.597ZM88.6731 87.9904C87.8629 88.328 86.9972 88.5 86.0625 88.5V91.5C87.3778 91.5 88.6371 91.2554 89.8269 90.7596L88.6731 87.9904ZM86.0625 88.5H49.4375V91.5H86.0625V88.5ZM49.4375 88.5C46.0884 88.5 42.6925 88.1369 39.2483 87.4075L38.6267 90.3425C42.2658 91.1131 45.87 91.5 49.4375 91.5V88.5ZM39.2483 87.4075C35.8181 86.6812 32.4875 85.5712 29.2547 84.0761L27.9953 86.7989C31.4292 88.3871 34.9736 89.5688 38.6267 90.3425L39.2483 87.4075ZM29.2752 84.0857C26.0974 82.5572 23.0958 80.6242 20.2695 78.2825L18.3555 80.5925C21.3626 83.0841 24.5692 85.1511 27.9748 86.7893L29.2752 84.0857ZM20.2695 78.2825C17.469 75.962 15.0024 73.2168 12.8706 70.0393L10.3794 71.7107C12.6643 75.1165 15.3227 78.0796 18.3555 80.5925L20.2695 78.2825ZM12.8827 70.0575C10.8037 66.8591 9.15265 63.203 7.93905 59.0768L5.06095 59.9232C6.34735 64.297 8.11295 68.2242 10.3673 71.6925L12.8827 70.0575ZM7.94016 59.0805C6.73606 54.9465 6.125 50.3196 6.125 45.1875H3.125C3.125 50.5554 3.76394 55.4702 5.05984 59.9195L7.94016 59.0805ZM6.125 45.1875V0.375H3.125V45.1875H6.125ZM4.625 1.875H20.875V-1.125H4.625V1.875ZM19.375 0.375V45.1875H22.375V0.375H19.375ZM19.375 45.1875C19.375 49.898 20.0161 53.972 21.3548 57.3632L24.1452 56.2618C22.9839 53.3197 22.375 49.6436 22.375 45.1875H19.375ZM21.3611 57.379C22.7083 60.6818 24.4222 63.4881 26.522 65.7665L28.728 63.7335C26.9111 61.7619 25.375 59.2765 24.1389 56.246L21.3611 57.379ZM26.522 65.7665C28.5869 68.0072 30.8696 69.7857 33.3727 71.082L34.7523 68.418C32.5887 67.2976 30.5798 65.7428 28.728 63.7335L26.522 65.7665ZM33.3727 71.082C35.7784 72.3278 38.0827 73.2658 40.2831 73.8819L41.0919 70.9931C39.1257 70.4425 37.0132 69.5889 34.7523 68.418L33.3727 71.082ZM40.2904 73.884C42.4666 74.4814 44.4044 74.8765 46.093 75.0543L46.407 72.0707C44.929 71.9152 43.1584 71.5603 41.0846 70.991L40.2904 73.884ZM46.135 75.0581C47.7468 75.1821 48.8692 75.25 49.4375 75.25V72.25C49.0058 72.25 48.0032 72.1929 46.365 72.0669L46.135 75.0581ZM49.4375 75.25H78V72.25H49.4375V75.25ZM79.5 73.75V0.375H76.5V73.75H79.5ZM78 1.875H94.25V-1.125H78V1.875ZM92.75 0.375V81.8125H95.75V0.375H92.75ZM199.675 53.375V54.875H201.175V53.375H199.675ZM148.363 53.375H146.863V54.875H148.363V53.375ZM148.363 37V35.5H146.863V37H148.363ZM199.675 37H201.175V35.5H199.675V37ZM206.988 90V91.5H208.488V90H206.988ZM133.55 84.9375L132.602 86.1004L132.614 86.1099L132.626 86.1192L133.55 84.9375ZM127.863 77.875L126.529 78.561L126.534 78.5725L126.541 78.5839L127.863 77.875ZM127.925 2.75L126.864 1.68934L126.849 1.70449L126.834 1.72006L127.925 2.75ZM206.988 0.375H208.488V-1.125H206.988V0.375ZM206.988 16.625V18.125H208.488V16.625H206.988ZM141.863 16.625V15.125H140.363V16.625H141.863ZM206.988 73.75H208.488V72.25H206.988V73.75ZM199.675 51.875H148.363V54.875H199.675V51.875ZM149.863 53.375V37H146.863V53.375H149.863ZM148.363 38.5H199.675V35.5H148.363V38.5ZM198.175 37V53.375H201.175V37H198.175ZM206.988 88.5H148.363V91.5H206.988V88.5ZM148.363 88.5C146.286 88.5 143.974 88.1344 141.414 87.3745L140.561 90.2505C143.335 91.074 145.939 91.5 148.363 91.5V88.5ZM141.414 87.3745C138.936 86.6388 136.624 85.437 134.474 83.7558L132.626 86.1192C135.059 88.0213 137.705 89.4029 140.561 90.2505L141.414 87.3745ZM134.498 83.7746C132.419 82.081 130.644 79.8882 129.184 77.1661L126.541 78.5839C128.164 81.6118 130.181 84.1273 132.602 86.1004L134.498 83.7746ZM129.196 77.189C127.832 74.536 127.113 71.2228 127.113 67.1875H124.113C124.113 71.5689 124.893 75.3806 126.529 78.561L129.196 77.189ZM127.113 67.1875V8.5625H124.113V67.1875H127.113ZM127.113 8.5625C127.113 7.62777 127.285 6.76208 127.622 5.95192L124.853 4.79808C124.357 5.98792 124.113 7.24723 124.113 8.5625H127.113ZM127.622 5.95192C127.973 5.11098 128.438 4.39144 129.016 3.77994L126.834 1.72006C125.995 2.60856 125.336 3.63902 124.853 4.79808L127.622 5.95192ZM128.986 3.81066C129.594 3.2022 130.304 2.72757 131.127 2.38462L129.973 -0.384615C128.796 0.105759 127.756 0.797799 126.864 1.68934L128.986 3.81066ZM131.127 2.38462C131.93 2.04982 132.816 1.875 133.8 1.875V-1.125C132.451 -1.125 131.17 -0.883154 129.973 -0.384615L131.127 2.38462ZM133.8 1.875H206.988V-1.125H133.8V1.875ZM205.488 0.375V16.625H208.488V0.375H205.488ZM206.988 15.125H141.863V18.125H206.988V15.125ZM140.363 16.625V67.1875H143.363V16.625H140.363ZM140.363 67.1875C140.363 69.5725 140.999 71.6324 142.489 73.1232L144.611 71.0018C143.851 70.2426 143.363 69.0525 143.363 67.1875H140.363ZM142.489 73.1232C143.985 74.619 146.071 75.25 148.488 75.25V72.25C146.571 72.25 145.365 71.756 144.611 71.0018L142.489 73.1232ZM148.488 75.25H206.988V72.25H148.488V75.25ZM205.488 73.75V90H208.488V73.75H205.488ZM317.85 90V91.5H319.35V90H317.85ZM240.475 89.375L239.898 90.7596L240.475 89.375ZM237.85 87.6875L236.759 88.7174L236.789 88.7486L236.82 88.778L237.85 87.6875ZM235.538 0.375V-1.125H234.038V0.375H235.538ZM251.788 0.375H253.288V-1.125H251.788V0.375ZM251.788 73.75H250.288V75.25H251.788V73.75ZM317.85 73.75H319.35V72.25H317.85V73.75ZM317.85 88.5H243.725V91.5H317.85V88.5ZM243.725 88.5C242.741 88.5 241.855 88.3252 241.052 87.9904L239.898 90.7596C241.095 91.2582 242.376 91.5 243.725 91.5V88.5ZM241.052 87.9904C240.211 87.64 239.491 87.1745 238.88 86.597L236.82 88.778C237.709 89.6172 238.739 90.2767 239.898 90.7596L241.052 87.9904ZM238.941 86.6576C238.363 86.0461 237.898 85.3265 237.547 84.4856L234.778 85.6394C235.261 86.7985 235.92 87.8289 236.759 88.7174L238.941 86.6576ZM237.547 84.4856C237.212 83.6821 237.038 82.7965 237.038 81.8125H234.038C234.038 83.1618 234.279 84.4429 234.778 85.6394L237.547 84.4856ZM237.038 81.8125V0.375H234.038V81.8125H237.038ZM235.538 1.875H251.788V-1.125H235.538V1.875ZM250.288 0.375V73.75H253.288V0.375H250.288ZM251.788 75.25H317.85V72.25H251.788V75.25ZM316.35 73.75V90H319.35V73.75H316.35Z"/>
</g>
<defs>
<filter id="filter0_d_2_3" x="0.625" y="0.375" width="321.225" height="97.625" filterUnits="userSpaceOnUse" color-interpolation-filters="sRGB">
<feFlood flood-opacity="0" result="BackgroundImageFix"/>
<feColorMatrix in="SourceAlpha" type="matrix" values="0 0 0 0 0 0 0 0 0 0 0 0 0 0 0 0 0 0 127 0" result="hardAlpha"/>
<feOffset dy="4"/>
<feGaussianBlur stdDeviation="2"/>
<feComposite in2="hardAlpha" operator="out"/>
<feColorMatrix type="matrix" values="0 0 0 0 0 0 0 0 0 0 0 0 0 0 0 0 0 0 0.25 0"/>
<feBlend mode="normal" in2="BackgroundImageFix" result="effect1_dropShadow_2_3"/>
<feBlend mode="normal" in="SourceGraphic" in2="effect1_dropShadow_2_3" result="shape"/>
</filter>
</defs>
</svg>
