<svg width="697" height="102" viewBox="0 0 697 102" fill="none" xmlns="http://www.w3.org/2000/svg">
<g filter="url(#filter0_d_2_3)">
<path d="M108.75 92H92.375V38.625L63.5625 89.3125C62.8542 90.6042 61.8542 91.5833 60.5625 92.25C59.3125 92.9167 57.9583 93.25 56.5 93.25C55.0833 93.25 53.75 92.9167 52.5 92.25C51.2917 91.5833 50.3333 90.6042 49.625 89.3125L20.6875 38.625V92H4.4375V9.3125C4.4375 7.4375 4.97917 5.77083 6.0625 4.3125C7.1875 2.85417 8.64583 1.875 10.4375 1.375C11.3125 1.16667 12.1875 1.10417 13.0625 1.1875C13.9375 1.22917 14.7708 1.41667 15.5625 1.75C16.3958 2.04167 17.1458 2.47917 17.8125 3.0625C18.4792 3.60417 19.0417 4.27083 19.5 5.0625L56.5 69.375L93.5 5.0625C94.4583 3.47917 95.7708 2.35417 97.4375 1.6875C99.1458 1.02083 100.917 0.916667 102.75 1.375C104.5 1.875 105.938 2.85417 107.062 4.3125C108.188 5.77083 108.75 7.4375 108.75 9.3125V92ZM228.425 92H212.175V70H155.05V92H138.8V47.1875C138.8 40.6458 139.925 34.625 142.175 29.125C144.425 23.625 147.55 18.8958 151.55 14.9375C155.55 10.9792 160.279 7.89583 165.738 5.6875C171.196 3.47917 177.154 2.375 183.613 2.375H220.238C221.363 2.375 222.425 2.58333 223.425 3C224.425 3.41667 225.3 4 226.05 4.75C226.8 5.5 227.383 6.375 227.8 7.375C228.217 8.375 228.425 9.4375 228.425 10.5625V92ZM155.05 53.75H212.175V18.625H183.613C183.113 18.625 182.05 18.7083 180.425 18.875C178.842 19 176.988 19.3542 174.863 19.9375C172.779 20.5208 170.571 21.4167 168.238 22.625C165.904 23.8333 163.758 25.5 161.8 27.625C159.842 29.75 158.217 32.4167 156.925 35.625C155.675 38.7917 155.05 42.6458 155.05 47.1875V53.75ZM349.725 85.0625C349.725 86.2292 349.496 87.3125 349.038 88.3125C348.621 89.3125 348.038 90.1875 347.288 90.9375C346.579 91.6458 345.725 92.2083 344.725 92.625C343.725 93.0417 342.663 93.25 341.538 93.25C340.538 93.25 339.517 93.0625 338.475 92.6875C337.475 92.3125 336.579 91.7083 335.788 90.875L276.413 28.875V92H260.163V9.3125C260.163 7.64583 260.621 6.14583 261.538 4.8125C262.496 3.4375 263.704 2.41667 265.163 1.75C266.704 1.125 268.288 0.979167 269.913 1.3125C271.538 1.60417 272.933 2.35417 274.1 3.5625L333.475 65.5V2.375H349.725V85.0625ZM469.275 83.8125C469.275 84.9792 469.067 86.0625 468.65 87.0625C468.233 88.0625 467.65 88.9375 466.9 89.6875C466.15 90.3958 465.275 90.9583 464.275 91.375C463.275 91.7917 462.212 92 461.087 92H424.462C421.004 92 417.504 91.625 413.962 90.875C410.421 90.125 406.983 88.9792 403.65 87.4375C400.358 85.8542 397.254 83.8542 394.337 81.4375C391.421 79.0208 388.858 76.1667 386.65 72.875C384.483 69.5417 382.775 65.75 381.525 61.5C380.275 57.2083 379.65 52.4375 379.65 47.1875V2.375H395.9V47.1875C395.9 51.7708 396.525 55.6458 397.775 58.8125C399.067 61.9792 400.692 64.625 402.65 66.75C404.608 68.875 406.754 70.5417 409.087 71.75C411.421 72.9583 413.629 73.8542 415.712 74.4375C417.837 75.0208 419.692 75.3958 421.275 75.5625C422.9 75.6875 423.962 75.75 424.462 75.75H453.025V2.375H469.275V83.8125ZM574.7 55.375H523.388V39H574.7V55.375ZM582.013 92H523.388C521.138 92 518.679 91.6042 516.013 90.8125C513.346 90.0208 510.867 88.7292 508.575 86.9375C506.325 85.1042 504.429 82.75 502.888 79.875C501.388 76.9583 500.638 73.3958 500.638 69.1875V10.5625C500.638 9.4375 500.846 8.375 501.263 7.375C501.679 6.375 502.242 5.5 502.95 4.75C503.7 4 504.575 3.41667 505.575 3C506.575 2.58333 507.658 2.375 508.825 2.375H582.013V18.625H516.888V69.1875C516.888 71.3125 517.45 72.9375 518.575 74.0625C519.7 75.1875 521.346 75.75 523.513 75.75H582.013V92ZM692.875 92H618.75C617.583 92 616.5 91.7917 615.5 91.375C614.5 90.9583 613.625 90.3958 612.875 89.6875C612.167 88.9375 611.604 88.0625 611.188 87.0625C610.771 86.0625 610.562 84.9792 610.562 83.8125V2.375H626.812V75.75H692.875V92Z" fill="red"/>
<path d="M108.75 92V93.5H110.25V92H108.75ZM92.375 92H90.875V93.5H92.375V92ZM92.375 38.625H93.875V32.9508L91.071 37.8837L92.375 38.625ZM63.5625 89.3125L62.2585 88.5712L62.2528 88.5812L62.2473 88.5913L63.5625 89.3125ZM60.5625 92.25L59.8745 90.9171L59.8655 90.9217L59.8566 90.9265L60.5625 92.25ZM52.5 92.25L51.7754 93.5634L51.7847 93.5685L51.7941 93.5735L52.5 92.25ZM49.625 89.3125L50.9402 88.5913L50.934 88.58L50.9277 88.5688L49.625 89.3125ZM20.6875 38.625L21.9902 37.8813L19.1875 32.9721V38.625H20.6875ZM20.6875 92V93.5H22.1875V92H20.6875ZM4.4375 92H2.9375V93.5H4.4375V92ZM6.0625 4.3125L4.87483 3.39629L4.86651 3.40708L4.85838 3.41801L6.0625 4.3125ZM10.4375 1.375L10.0901 -0.0842093L10.062 -0.0775374L10.0343 -0.0697945L10.4375 1.375ZM13.0625 1.1875L12.9203 2.68074L12.9557 2.68411L12.9912 2.6858L13.0625 1.1875ZM15.5625 1.75L14.9804 3.13245L15.0232 3.15046L15.067 3.16579L15.5625 1.75ZM17.8125 3.0625L16.8247 4.19137L16.8454 4.2094L16.8666 4.22667L17.8125 3.0625ZM19.5 5.0625L20.8002 4.31448L20.7981 4.31095L19.5 5.0625ZM56.5 69.375L55.1998 70.123L56.5 72.383L57.8002 70.123L56.5 69.375ZM93.5 5.0625L92.2167 4.2858L92.2081 4.30005L92.1998 4.31448L93.5 5.0625ZM97.4375 1.6875L96.8922 0.290084L96.8804 0.294785L97.4375 1.6875ZM102.75 1.375L103.162 -0.0672859L103.138 -0.074152L103.114 -0.0802138L102.75 1.375ZM108.75 90.5H92.375V93.5H108.75V90.5ZM93.875 92V38.625H90.875V92H93.875ZM91.071 37.8837L62.2585 88.5712L64.8665 90.0538L93.679 39.3663L91.071 37.8837ZM62.2473 88.5913C61.6804 89.6249 60.8971 90.3893 59.8745 90.9171L61.2505 93.5829C62.8112 92.7774 64.0279 91.5834 64.8777 90.0337L62.2473 88.5913ZM59.8566 90.9265C58.8304 91.4738 57.7196 91.75 56.5 91.75V94.75C58.197 94.75 59.7946 94.3595 61.2684 93.5735L59.8566 90.9265ZM56.5 91.75C55.3295 91.75 54.2386 91.4773 53.2059 90.9265L51.7941 93.5735C53.2614 94.3561 54.8371 94.75 56.5 94.75V91.75ZM53.2246 90.9366C52.2823 90.4167 51.5214 89.6511 50.9402 88.5913L48.3098 90.0337C49.1452 91.5572 50.301 92.7499 51.7754 93.5634L53.2246 90.9366ZM50.9277 88.5688L21.9902 37.8813L19.3848 39.3687L48.3223 90.0562L50.9277 88.5688ZM19.1875 38.625V92H22.1875V38.625H19.1875ZM20.6875 90.5H4.4375V93.5H20.6875V90.5ZM5.9375 92V9.3125H2.9375V92H5.9375ZM5.9375 9.3125C5.9375 7.74861 6.38193 6.39791 7.26662 5.20699L4.85838 3.41801C3.5764 5.14376 2.9375 7.12639 2.9375 9.3125H5.9375ZM7.25017 5.22871C8.17543 4.0293 9.35735 3.23375 10.8407 2.81979L10.0343 -0.0697945C7.93432 0.516248 6.19957 1.67903 4.87483 3.39629L7.25017 5.22871ZM10.7849 2.83421C11.5035 2.66313 12.2131 2.61339 12.9203 2.68074L13.2047 -0.305743C12.1619 -0.405059 11.1215 -0.329792 10.0901 -0.0842093L10.7849 2.83421ZM12.9912 2.6858C13.694 2.71927 14.3541 2.86875 14.9804 3.13245L16.1446 0.367547C15.1875 -0.0354173 14.181 -0.260937 13.1338 -0.310802L12.9912 2.6858ZM15.067 3.16579C15.7188 3.39392 16.3018 3.73381 16.8247 4.19137L18.8003 1.93363C17.9898 1.22452 17.0729 0.689411 16.058 0.334212L15.067 3.16579ZM16.8666 4.22667C17.3828 4.64605 17.8289 5.16986 18.2019 5.81405L20.7981 4.31095C20.2544 3.37181 19.5756 2.56228 18.7584 1.89833L16.8666 4.22667ZM18.1998 5.81052L55.1998 70.123L57.8002 68.627L20.8002 4.31448L18.1998 5.81052ZM57.8002 70.123L94.8002 5.81052L92.1998 4.31448L55.1998 68.627L57.8002 70.123ZM94.7833 5.8392C95.5785 4.52533 96.6404 3.62189 97.9946 3.08022L96.8804 0.294785C94.9013 1.08644 93.3382 2.433 92.2167 4.2858L94.7833 5.8392ZM97.9828 3.08487C99.3921 2.53489 100.845 2.44485 102.386 2.83021L103.114 -0.0802138C100.989 -0.611518 98.8995 -0.49322 96.8922 0.290134L97.9828 3.08487ZM102.338 2.81729C103.776 3.22813 104.943 4.02079 105.875 5.22871L108.25 3.39629C106.932 1.68754 105.224 0.521867 103.162 -0.0672859L102.338 2.81729ZM105.875 5.22871C106.793 6.41948 107.25 7.76257 107.25 9.3125H110.25C110.25 7.11243 109.582 5.12219 108.25 3.39629L105.875 5.22871ZM107.25 9.3125V92H110.25V9.3125H107.25ZM228.425 92V93.5H229.925V92H228.425ZM212.175 92H210.675V93.5H212.175V92ZM212.175 70H213.675V68.5H212.175V70ZM155.05 70V68.5H153.55V70H155.05ZM155.05 92V93.5H156.55V92H155.05ZM138.8 92H137.3V93.5H138.8V92ZM165.738 5.6875L165.175 4.29699L165.738 5.6875ZM155.05 53.75H153.55V55.25H155.05V53.75ZM212.175 53.75V55.25H213.675V53.75H212.175ZM212.175 18.625H213.675V17.125H212.175V18.625ZM180.425 18.875L180.543 20.3703L180.561 20.369L180.578 20.3672L180.425 18.875ZM174.863 19.9375L174.465 18.491L174.458 18.4931L174.863 19.9375ZM161.8 27.625L160.697 26.6085L161.8 27.625ZM156.925 35.625L155.534 35.0648L155.53 35.0743L156.925 35.625ZM228.425 90.5H212.175V93.5H228.425V90.5ZM213.675 92V70H210.675V92H213.675ZM212.175 68.5H155.05V71.5H212.175V68.5ZM153.55 70V92H156.55V70H153.55ZM155.05 90.5H138.8V93.5H155.05V90.5ZM140.3 92V47.1875H137.3V92H140.3ZM140.3 47.1875C140.3 40.8209 141.394 34.9953 143.563 29.6929L140.787 28.5571C138.456 34.2547 137.3 40.4708 137.3 47.1875H140.3ZM143.563 29.6929C145.741 24.3691 148.757 19.8122 152.605 16.0037L150.495 13.8713C146.343 17.9795 143.109 22.8809 140.787 28.5571L143.563 29.6929ZM152.605 16.0037C156.457 12.1914 161.017 9.2154 166.3 7.07801L165.175 4.29699C159.541 6.57626 154.643 9.7669 150.495 13.8713L152.605 16.0037ZM166.3 7.07801C171.563 4.9487 177.328 3.875 183.613 3.875V0.875C176.98 0.875 170.829 2.00963 165.175 4.29699L166.3 7.07801ZM183.613 3.875H220.238V0.875H183.613V3.875ZM220.238 3.875C221.172 3.875 222.038 4.04705 222.848 4.38462L224.002 1.61538C222.812 1.11962 221.553 0.875 220.238 0.875V3.875ZM222.848 4.38462C223.671 4.72757 224.381 5.2022 224.989 5.81066L227.111 3.68934C226.219 2.7978 225.179 2.10576 224.002 1.61538L222.848 4.38462ZM224.989 5.81066C225.598 6.41912 226.072 7.12882 226.415 7.95192L229.185 6.79808C228.694 5.62118 228.002 4.58088 227.111 3.68934L224.989 5.81066ZM226.415 7.95192C226.753 8.76208 226.925 9.62777 226.925 10.5625H229.925C229.925 9.24723 229.68 7.98792 229.185 6.79808L226.415 7.95192ZM226.925 10.5625V92H229.925V10.5625H226.925ZM155.05 55.25H212.175V52.25H155.05V55.25ZM213.675 53.75V18.625H210.675V53.75H213.675ZM212.175 17.125H183.613V20.125H212.175V17.125ZM183.613 17.125C183.021 17.125 181.879 17.218 180.272 17.3828L180.578 20.3672C182.221 20.1987 183.204 20.125 183.613 20.125V17.125ZM180.307 17.3797C178.601 17.5143 176.649 17.8915 174.465 18.491L175.26 21.384C177.326 20.8169 179.082 20.4857 180.543 20.3703L180.307 17.3797ZM174.458 18.4931C172.258 19.1092 169.953 20.0472 167.548 21.293L168.927 23.957C171.188 22.7861 173.301 21.9325 175.267 21.3819L174.458 18.4931ZM167.548 21.293C165.045 22.5893 162.762 24.3678 160.697 26.6085L162.903 28.6415C164.755 26.6322 166.764 25.0774 168.927 23.957L167.548 21.293ZM160.697 26.6085C158.594 28.8903 156.88 31.7205 155.534 35.0648L158.316 36.1852C159.553 33.1129 161.089 30.6097 162.903 28.6415L160.697 26.6085ZM155.53 35.0743C154.192 38.4641 153.55 42.5167 153.55 47.1875H156.55C156.55 42.775 157.158 39.1192 158.32 36.1757L155.53 35.0743ZM153.55 47.1875V53.75H156.55V47.1875H153.55ZM349.038 88.3125L347.674 87.6875L347.663 87.7114L347.653 87.7356L349.038 88.3125ZM347.288 90.9375L346.227 89.8768L347.288 90.9375ZM344.725 92.625L344.148 91.2404L344.725 92.625ZM338.475 92.6875L337.948 94.092L337.958 94.0955L337.967 94.0988L338.475 92.6875ZM335.788 90.875L336.875 89.8419L336.871 89.8375L335.788 90.875ZM276.413 28.875L277.496 27.8375L274.913 25.14V28.875H276.413ZM276.413 92V93.5H277.913V92H276.413ZM260.163 92H258.663V93.5H260.163V92ZM261.538 4.8125L260.307 3.95479L260.301 3.96271L261.538 4.8125ZM265.163 1.75L264.599 0.359891L264.569 0.372184L264.539 0.385788L265.163 1.75ZM269.913 1.3125L269.611 2.7819L269.629 2.78563L269.648 2.78891L269.913 1.3125ZM274.1 3.5625L275.183 2.52447L275.179 2.52061L274.1 3.5625ZM333.475 65.5L332.392 66.538L334.975 69.2323V65.5H333.475ZM333.475 2.375V0.875H331.975V2.375H333.475ZM349.725 2.375H351.225V0.875H349.725V2.375ZM348.225 85.0625C348.225 86.0268 348.037 86.8954 347.674 87.6875L350.401 88.9375C350.955 87.7296 351.225 86.4316 351.225 85.0625H348.225ZM347.653 87.7356C347.31 88.5587 346.835 89.2684 346.227 89.8768L348.348 91.9982C349.24 91.1066 349.932 90.0663 350.422 88.8894L347.653 87.7356ZM346.227 89.8768C345.668 90.4357 344.982 90.8929 344.148 91.2404L345.302 94.0096C346.468 93.5238 347.49 92.856 348.348 91.9982L346.227 89.8768ZM344.148 91.2404C343.338 91.578 342.472 91.75 341.538 91.75V94.75C342.853 94.75 344.112 94.5054 345.302 94.0096L344.148 91.2404ZM341.538 91.75C340.728 91.75 339.879 91.5988 338.983 91.2762L337.967 94.0988C339.154 94.5262 340.347 94.75 341.538 94.75V91.75ZM339.002 91.283C338.23 90.9937 337.522 90.5234 336.875 89.8419L334.7 91.9081C335.636 92.8933 336.72 93.6313 337.948 94.092L339.002 91.283ZM336.871 89.8375L277.496 27.8375L275.329 29.9125L334.704 91.9125L336.871 89.8375ZM274.913 28.875V92H277.913V28.875H274.913ZM276.413 90.5H260.163V93.5H276.413V90.5ZM261.663 92V9.3125H258.663V92H261.663ZM261.663 9.3125C261.663 7.93957 262.034 6.7377 262.774 5.66229L260.301 3.96271C259.207 5.55396 258.663 7.35209 258.663 9.3125H261.663ZM262.768 5.67019C263.58 4.50488 264.583 3.6642 265.786 3.11421L264.539 0.385788C262.825 1.16913 261.411 2.37012 260.307 3.95481L262.768 5.67019ZM265.726 3.14011C266.994 2.62593 268.277 2.5082 269.611 2.7819L270.214 -0.156904C268.298 -0.54987 266.414 -0.375932 264.599 0.359891L265.726 3.14011ZM269.648 2.78891C270.956 3.02385 272.069 3.61862 273.021 4.60439L275.179 2.52061C273.798 1.08971 272.119 0.184481 270.178 -0.163907L269.648 2.78891ZM273.017 4.60052L332.392 66.538L334.558 64.462L275.183 2.52448L273.017 4.60052ZM334.975 65.5V2.375H331.975V65.5H334.975ZM333.475 3.875H349.725V0.875H333.475V3.875ZM348.225 2.375V85.0625H351.225V2.375H348.225ZM466.9 89.6875L467.93 90.778L467.946 90.7633L467.961 90.7482L466.9 89.6875ZM403.65 87.4375L403 88.7893L403.01 88.7942L403.02 88.7989L403.65 87.4375ZM386.65 72.875L385.392 73.6925L385.398 73.7016L385.404 73.7107L386.65 72.875ZM381.525 61.5L380.085 61.9195L380.086 61.9232L381.525 61.5ZM379.65 2.375V0.875H378.15V2.375H379.65ZM395.9 2.375H397.4V0.875H395.9V2.375ZM397.775 58.8125L396.38 59.3632L396.383 59.3712L396.386 59.379L397.775 58.8125ZM402.65 66.75L401.547 67.7665L402.65 66.75ZM415.712 74.4375L415.308 75.882L415.315 75.884L415.712 74.4375ZM421.275 75.5625L421.118 77.0543L421.139 77.0565L421.16 77.0581L421.275 75.5625ZM453.025 75.75V77.25H454.525V75.75H453.025ZM453.025 2.375V0.875H451.525V2.375H453.025ZM469.275 2.375H470.775V0.875H469.275V2.375ZM467.775 83.8125C467.775 84.7965 467.6 85.6821 467.265 86.4856L470.035 87.6394C470.533 86.4429 470.775 85.1618 470.775 83.8125H467.775ZM467.265 86.4856C466.922 87.3087 466.448 88.0184 465.839 88.6268L467.961 90.7482C468.852 89.8566 469.544 88.8163 470.035 87.6394L467.265 86.4856ZM465.87 88.597C465.259 89.1745 464.539 89.64 463.698 89.9904L464.852 92.7596C466.011 92.2767 467.041 91.6172 467.93 90.778L465.87 88.597ZM463.698 89.9904C462.888 90.328 462.022 90.5 461.087 90.5V93.5C462.403 93.5 463.662 93.2554 464.852 92.7596L463.698 89.9904ZM461.087 90.5H424.462V93.5H461.087V90.5ZM424.462 90.5C421.113 90.5 417.718 90.1369 414.273 89.4075L413.652 92.3425C417.291 93.1131 420.895 93.5 424.462 93.5V90.5ZM414.273 89.4075C410.843 88.6812 407.512 87.5712 404.28 86.0761L403.02 88.7989C406.454 90.3871 409.999 91.5688 413.652 92.3425L414.273 89.4075ZM404.3 86.0857C401.122 84.5572 398.121 82.6242 395.295 80.2825L393.38 82.5925C396.388 85.0841 399.594 87.1511 403 88.7893L404.3 86.0857ZM395.295 80.2825C392.494 77.962 390.027 75.2168 387.896 72.0393L385.404 73.7107C387.689 77.1165 390.348 80.0796 393.38 82.5925L395.295 80.2825ZM387.908 72.0575C385.829 68.8591 384.178 65.203 382.964 61.0768L380.086 61.9232C381.372 66.297 383.138 70.2242 385.392 73.6925L387.908 72.0575ZM382.965 61.0805C381.761 56.9465 381.15 52.3196 381.15 47.1875H378.15C378.15 52.5554 378.789 57.4702 380.085 61.9195L382.965 61.0805ZM381.15 47.1875V2.375H378.15V47.1875H381.15ZM379.65 3.875H395.9V0.875H379.65V3.875ZM394.4 2.375V47.1875H397.4V2.375H394.4ZM394.4 47.1875C394.4 51.898 395.041 55.972 396.38 59.3632L399.17 58.2618C398.009 55.3197 397.4 51.6436 397.4 47.1875H394.4ZM396.386 59.379C397.733 62.6818 399.447 65.4881 401.547 67.7665L403.753 65.7335C401.936 63.7619 400.4 61.2765 399.164 58.246L396.386 59.379ZM401.547 67.7665C403.612 70.0072 405.895 71.7857 408.398 73.082L409.777 70.418C407.614 69.2976 405.605 67.7428 403.753 65.7335L401.547 67.7665ZM408.398 73.082C410.803 74.3278 413.108 75.2658 415.308 75.8819L416.117 72.9931C414.151 72.4425 412.038 71.5889 409.777 70.418L408.398 73.082ZM415.315 75.884C417.492 76.4814 419.429 76.8765 421.118 77.0543L421.432 74.0707C419.954 73.9152 418.183 73.5603 416.11 72.991L415.315 75.884ZM421.16 77.0581C422.772 77.1821 423.894 77.25 424.462 77.25V74.25C424.031 74.25 423.028 74.1929 421.39 74.0669L421.16 77.0581ZM424.462 77.25H453.025V74.25H424.462V77.25ZM454.525 75.75V2.375H451.525V75.75H454.525ZM453.025 3.875H469.275V0.875H453.025V3.875ZM467.775 2.375V83.8125H470.775V2.375H467.775ZM574.7 55.375V56.875H576.2V55.375H574.7ZM523.388 55.375H521.888V56.875H523.388V55.375ZM523.388 39V37.5H521.888V39H523.388ZM574.7 39H576.2V37.5H574.7V39ZM582.013 92V93.5H583.513V92H582.013ZM508.575 86.9375L507.628 88.1004L507.639 88.1099L507.651 88.1192L508.575 86.9375ZM502.888 79.875L501.554 80.561L501.559 80.5725L501.566 80.5839L502.888 79.875ZM502.95 4.75L501.889 3.68934L501.874 3.70449L501.859 3.72006L502.95 4.75ZM582.013 2.375H583.513V0.875H582.013V2.375ZM582.013 18.625V20.125H583.513V18.625H582.013ZM516.888 18.625V17.125H515.388V18.625H516.888ZM582.013 75.75H583.513V74.25H582.013V75.75ZM574.7 53.875H523.388V56.875H574.7V53.875ZM524.888 55.375V39H521.888V55.375H524.888ZM523.388 40.5H574.7V37.5H523.388V40.5ZM573.2 39V55.375H576.2V39H573.2ZM582.013 90.5H523.388V93.5H582.013V90.5ZM523.388 90.5C521.311 90.5 518.999 90.1344 516.439 89.3745L515.586 92.2505C518.36 93.074 520.964 93.5 523.388 93.5V90.5ZM516.439 89.3745C513.961 88.6388 511.649 87.437 509.499 85.7558L507.651 88.1192C510.084 90.0213 512.731 91.4029 515.586 92.2505L516.439 89.3745ZM509.523 85.7746C507.444 84.081 505.669 81.8882 504.209 79.1661L501.566 80.5839C503.189 83.6118 505.206 86.1273 507.628 88.1004L509.523 85.7746ZM504.221 79.189C502.857 76.536 502.138 73.2228 502.138 69.1875H499.138C499.138 73.5689 499.918 77.3806 501.554 80.561L504.221 79.189ZM502.138 69.1875V10.5625H499.138V69.1875H502.138ZM502.138 10.5625C502.138 9.62777 502.31 8.76208 502.647 7.95192L499.878 6.79808C499.382 7.98792 499.138 9.24723 499.138 10.5625H502.138ZM502.647 7.95192C502.998 7.11098 503.463 6.39144 504.041 5.77994L501.859 3.72006C501.02 4.60856 500.361 5.63902 499.878 6.79808L502.647 7.95192ZM504.011 5.81066C504.619 5.2022 505.329 4.72757 506.152 4.38462L504.998 1.61538C503.821 2.10576 502.781 2.7978 501.889 3.68934L504.011 5.81066ZM506.152 4.38462C506.955 4.04982 507.841 3.875 508.825 3.875V0.875C507.476 0.875 506.195 1.11685 504.998 1.61538L506.152 4.38462ZM508.825 3.875H582.013V0.875H508.825V3.875ZM580.513 2.375V18.625H583.513V2.375H580.513ZM582.013 17.125H516.888V20.125H582.013V17.125ZM515.388 18.625V69.1875H518.388V18.625H515.388ZM515.388 69.1875C515.388 71.5725 516.024 73.6324 517.514 75.1232L519.636 73.0018C518.876 72.2426 518.388 71.0525 518.388 69.1875H515.388ZM517.514 75.1232C519.01 76.619 521.096 77.25 523.513 77.25V74.25C521.596 74.25 520.39 73.756 519.636 73.0018L517.514 75.1232ZM523.513 77.25H582.013V74.25H523.513V77.25ZM580.513 75.75V92H583.513V75.75H580.513ZM692.875 92V93.5H694.375V92H692.875ZM615.5 91.375L614.923 92.7596L615.5 91.375ZM612.875 89.6875L611.784 90.7174L611.814 90.7486L611.845 90.778L612.875 89.6875ZM610.562 2.375V0.875H609.062V2.375H610.562ZM626.812 2.375H628.312V0.875H626.812V2.375ZM626.812 75.75H625.312V77.25H626.812V75.75ZM692.875 75.75H694.375V74.25H692.875V75.75ZM692.875 90.5H618.75V93.5H692.875V90.5ZM618.75 90.5C617.766 90.5 616.88 90.3252 616.077 89.9904L614.923 92.7596C616.12 93.2582 617.401 93.5 618.75 93.5V90.5ZM616.077 89.9904C615.236 89.64 614.516 89.1745 613.905 88.597L611.845 90.778C612.734 91.6172 613.764 92.2767 614.923 92.7596L616.077 89.9904ZM613.966 88.6576C613.388 88.0461 612.923 87.3265 612.572 86.4856L609.803 87.6394C610.286 88.7985 610.945 89.8289 611.784 90.7174L613.966 88.6576ZM612.572 86.4856C612.237 85.6821 612.062 84.7965 612.062 83.8125H609.062C609.062 85.1618 609.304 86.4429 609.803 87.6394L612.572 86.4856ZM612.062 83.8125V2.375H609.062V83.8125H612.062ZM610.562 3.875H626.812V0.875H610.562V3.875ZM625.312 2.375V75.75H628.312V2.375H625.312ZM626.812 77.25H692.875V74.25H626.812V77.25ZM691.375 75.75V92H694.375V75.75H691.375Z" fill="red"/>
</g>
<defs>
<filter id="filter0_d_2_3" x="0.4375" y="0.6875" width="696.438" height="100.562" filterUnits="userSpaceOnUse" color-interpolation-filters="sRGB">
<feFlood flood-opacity="0" result="BackgroundImageFix"/>
<feColorMatrix in="SourceAlpha" type="matrix" values="0 0 0 0 0 0 0 0 0 0 0 0 0 0 0 0 0 0 127 0" result="hardAlpha"/>
<feOffset dy="4"/>
<feGaussianBlur stdDeviation="2"/>
<feComposite in2="hardAlpha" operator="out"/>
<feColorMatrix type="matrix" values="0 0 0 0 0 0 0 0 0 0 0 0 0 0 0 0 0 0 0.25 0"/>
<feBlend mode="normal" in2="BackgroundImageFix" result="effect1_dropShadow_2_3"/>
<feBlend mode="normal" in="SourceGraphic" in2="effect1_dropShadow_2_3" result="shape"/>
</filter>
</defs>
</svg>
