<svg width="354" height="102" viewBox="0 0 354 102" fill="none" xmlns="http://www.w3.org/2000/svg">
<g filter="url(#filter0_d_2_3)">
<path d="M108.75 92H92.375V38.625L63.5625 89.3125C62.8542 90.6042 61.8542 91.5833 60.5625 92.25C59.3125 92.9167 57.9583 93.25 56.5 93.25C55.0833 93.25 53.75 92.9167 52.5 92.25C51.2917 91.5833 50.3333 90.6042 49.625 89.3125L20.6875 38.625V92H4.4375V9.3125C4.4375 7.4375 4.97917 5.77083 6.0625 4.3125C7.1875 2.85417 8.64583 1.875 10.4375 1.375C11.3125 1.16667 12.1875 1.10417 13.0625 1.1875C13.9375 1.22917 14.7708 1.41667 15.5625 1.75C16.3958 2.04167 17.1458 2.47917 17.8125 3.0625C18.4792 3.60417 19.0417 4.27083 19.5 5.0625L56.5 69.375L93.5 5.0625C94.4583 3.47917 95.7708 2.35417 97.4375 1.6875C99.1458 1.02083 100.917 0.916667 102.75 1.375C104.5 1.875 105.938 2.85417 107.062 4.3125C108.188 5.77083 108.75 7.4375 108.75 9.3125V92ZM228.425 92H212.175V70H155.05V92H138.8V47.1875C138.8 40.6458 139.925 34.625 142.175 29.125C144.425 23.625 147.55 18.8958 151.55 14.9375C155.55 10.9792 160.279 7.89583 165.738 5.6875C171.196 3.47917 177.154 2.375 183.613 2.375H220.238C221.363 2.375 222.425 2.58333 223.425 3C224.425 3.41667 225.3 4 226.05 4.75C226.8 5.5 227.383 6.375 227.8 7.375C228.217 8.375 228.425 9.4375 228.425 10.5625V92ZM155.05 53.75H212.175V18.625H183.613C183.113 18.625 182.05 18.7083 180.425 18.875C178.842 19 176.988 19.3542 174.863 19.9375C172.779 20.5208 170.571 21.4167 168.238 22.625C165.904 23.8333 163.758 25.5 161.8 27.625C159.842 29.75 158.217 32.4167 156.925 35.625C155.675 38.7917 155.05 42.6458 155.05 47.1875V53.75ZM349.725 85.0625C349.725 86.2292 349.496 87.3125 349.038 88.3125C348.621 89.3125 348.038 90.1875 347.288 90.9375C346.579 91.6458 345.725 92.2083 344.725 92.625C343.725 93.0417 342.663 93.25 341.538 93.25C340.538 93.25 339.517 93.0625 338.475 92.6875C337.475 92.3125 336.579 91.7083 335.788 90.875L276.413 28.875V92H260.163V9.3125C260.163 7.64583 260.621 6.14583 261.538 4.8125C262.496 3.4375 263.704 2.41667 265.163 1.75C266.704 1.125 268.288 0.979167 269.913 1.3125C271.538 1.60417 272.933 2.35417 274.1 3.5625L333.475 65.5V2.375H349.725V85.0625Z" />
<path d="M108.75 92V93.5H110.25V92H108.75ZM92.375 92H90.875V93.5H92.375V92ZM92.375 38.625H93.875V32.9508L91.071 37.8837L92.375 38.625ZM63.5625 89.3125L62.2585 88.5712L62.2528 88.5812L62.2473 88.5913L63.5625 89.3125ZM60.5625 92.25L59.8745 90.9171L59.8655 90.9217L59.8566 90.9265L60.5625 92.25ZM52.5 92.25L51.7754 93.5634L51.7847 93.5685L51.7941 93.5735L52.5 92.25ZM49.625 89.3125L50.9402 88.5913L50.934 88.58L50.9277 88.5688L49.625 89.3125ZM20.6875 38.625L21.9902 37.8813L19.1875 32.9721V38.625H20.6875ZM20.6875 92V93.5H22.1875V92H20.6875ZM4.4375 92H2.9375V93.5H4.4375V92ZM6.0625 4.3125L4.87483 3.39629L4.86651 3.40708L4.85838 3.41801L6.0625 4.3125ZM10.4375 1.375L10.0901 -0.0842093L10.062 -0.0775374L10.0343 -0.0697945L10.4375 1.375ZM13.0625 1.1875L12.9203 2.68074L12.9557 2.68411L12.9912 2.6858L13.0625 1.1875ZM15.5625 1.75L14.9804 3.13245L15.0232 3.15046L15.067 3.16579L15.5625 1.75ZM17.8125 3.0625L16.8247 4.19137L16.8454 4.2094L16.8666 4.22667L17.8125 3.0625ZM19.5 5.0625L20.8002 4.31448L20.7981 4.31095L19.5 5.0625ZM56.5 69.375L55.1998 70.123L56.5 72.383L57.8002 70.123L56.5 69.375ZM93.5 5.0625L92.2167 4.2858L92.2081 4.30005L92.1998 4.31448L93.5 5.0625ZM97.4375 1.6875L96.8922 0.290084L96.8804 0.294785L97.4375 1.6875ZM102.75 1.375L103.162 -0.0672859L103.138 -0.074152L103.114 -0.0802138L102.75 1.375ZM108.75 90.5H92.375V93.5H108.75V90.5ZM93.875 92V38.625H90.875V92H93.875ZM91.071 37.8837L62.2585 88.5712L64.8665 90.0538L93.679 39.3663L91.071 37.8837ZM62.2473 88.5913C61.6804 89.6249 60.8971 90.3893 59.8745 90.9171L61.2505 93.5829C62.8112 92.7774 64.0279 91.5834 64.8777 90.0337L62.2473 88.5913ZM59.8566 90.9265C58.8304 91.4738 57.7196 91.75 56.5 91.75V94.75C58.197 94.75 59.7946 94.3595 61.2684 93.5735L59.8566 90.9265ZM56.5 91.75C55.3295 91.75 54.2386 91.4773 53.2059 90.9265L51.7941 93.5735C53.2614 94.3561 54.8371 94.75 56.5 94.75V91.75ZM53.2246 90.9366C52.2823 90.4167 51.5214 89.6511 50.9402 88.5913L48.3098 90.0337C49.1452 91.5572 50.301 92.7499 51.7754 93.5634L53.2246 90.9366ZM50.9277 88.5688L21.9902 37.8813L19.3848 39.3687L48.3223 90.0562L50.9277 88.5688ZM19.1875 38.625V92H22.1875V38.625H19.1875ZM20.6875 90.5H4.4375V93.5H20.6875V90.5ZM5.9375 92V9.3125H2.9375V92H5.9375ZM5.9375 9.3125C5.9375 7.74861 6.38193 6.39791 7.26662 5.20699L4.85838 3.41801C3.5764 5.14376 2.9375 7.12639 2.9375 9.3125H5.9375ZM7.25017 5.22871C8.17543 4.0293 9.35735 3.23375 10.8407 2.81979L10.0343 -0.0697945C7.93432 0.516248 6.19957 1.67903 4.87483 3.39629L7.25017 5.22871ZM10.7849 2.83421C11.5035 2.66313 12.2131 2.61339 12.9203 2.68074L13.2047 -0.305743C12.1619 -0.405059 11.1215 -0.329792 10.0901 -0.0842093L10.7849 2.83421ZM12.9912 2.6858C13.694 2.71927 14.3541 2.86875 14.9804 3.13245L16.1446 0.367547C15.1875 -0.0354173 14.181 -0.260937 13.1338 -0.310802L12.9912 2.6858ZM15.067 3.16579C15.7188 3.39392 16.3018 3.73381 16.8247 4.19137L18.8003 1.93363C17.9898 1.22452 17.0729 0.689411 16.058 0.334212L15.067 3.16579ZM16.8666 4.22667C17.3828 4.64605 17.8289 5.16986 18.2019 5.81405L20.7981 4.31095C20.2544 3.37181 19.5756 2.56228 18.7584 1.89833L16.8666 4.22667ZM18.1998 5.81052L55.1998 70.123L57.8002 68.627L20.8002 4.31448L18.1998 5.81052ZM57.8002 70.123L94.8002 5.81052L92.1998 4.31448L55.1998 68.627L57.8002 70.123ZM94.7833 5.8392C95.5785 4.52533 96.6404 3.62189 97.9946 3.08022L96.8804 0.294785C94.9013 1.08644 93.3382 2.433 92.2167 4.2858L94.7833 5.8392ZM97.9828 3.08487C99.3921 2.53489 100.845 2.44485 102.386 2.83021L103.114 -0.0802138C100.989 -0.611518 98.8995 -0.49322 96.8922 0.290134L97.9828 3.08487ZM102.338 2.81729C103.776 3.22813 104.943 4.02079 105.875 5.22871L108.25 3.39629C106.932 1.68754 105.224 0.521867 103.162 -0.0672859L102.338 2.81729ZM105.875 5.22871C106.793 6.41948 107.25 7.76257 107.25 9.3125H110.25C110.25 7.11243 109.582 5.12219 108.25 3.39629L105.875 5.22871ZM107.25 9.3125V92H110.25V9.3125H107.25ZM228.425 92V93.5H229.925V92H228.425ZM212.175 92H210.675V93.5H212.175V92ZM212.175 70H213.675V68.5H212.175V70ZM155.05 70V68.5H153.55V70H155.05ZM155.05 92V93.5H156.55V92H155.05ZM138.8 92H137.3V93.5H138.8V92ZM165.738 5.6875L165.175 4.29699L165.738 5.6875ZM155.05 53.75H153.55V55.25H155.05V53.75ZM212.175 53.75V55.25H213.675V53.75H212.175ZM212.175 18.625H213.675V17.125H212.175V18.625ZM180.425 18.875L180.543 20.3703L180.561 20.369L180.578 20.3672L180.425 18.875ZM174.863 19.9375L174.465 18.491L174.458 18.4931L174.863 19.9375ZM161.8 27.625L160.697 26.6085L161.8 27.625ZM156.925 35.625L155.534 35.0648L155.53 35.0743L156.925 35.625ZM228.425 90.5H212.175V93.5H228.425V90.5ZM213.675 92V70H210.675V92H213.675ZM212.175 68.5H155.05V71.5H212.175V68.5ZM153.55 70V92H156.55V70H153.55ZM155.05 90.5H138.8V93.5H155.05V90.5ZM140.3 92V47.1875H137.3V92H140.3ZM140.3 47.1875C140.3 40.8209 141.394 34.9953 143.563 29.6929L140.787 28.5571C138.456 34.2547 137.3 40.4708 137.3 47.1875H140.3ZM143.563 29.6929C145.741 24.3691 148.757 19.8122 152.605 16.0037L150.495 13.8713C146.343 17.9795 143.109 22.8809 140.787 28.5571L143.563 29.6929ZM152.605 16.0037C156.457 12.1914 161.017 9.2154 166.3 7.07801L165.175 4.29699C159.541 6.57626 154.643 9.7669 150.495 13.8713L152.605 16.0037ZM166.3 7.07801C171.563 4.9487 177.328 3.875 183.613 3.875V0.875C176.98 0.875 170.829 2.00963 165.175 4.29699L166.3 7.07801ZM183.613 3.875H220.238V0.875H183.613V3.875ZM220.238 3.875C221.172 3.875 222.038 4.04705 222.848 4.38462L224.002 1.61538C222.812 1.11962 221.553 0.875 220.238 0.875V3.875ZM222.848 4.38462C223.671 4.72757 224.381 5.2022 224.989 5.81066L227.111 3.68934C226.219 2.7978 225.179 2.10576 224.002 1.61538L222.848 4.38462ZM224.989 5.81066C225.598 6.41912 226.072 7.12882 226.415 7.95192L229.185 6.79808C228.694 5.62118 228.002 4.58088 227.111 3.68934L224.989 5.81066ZM226.415 7.95192C226.753 8.76208 226.925 9.62777 226.925 10.5625H229.925C229.925 9.24723 229.68 7.98792 229.185 6.79808L226.415 7.95192ZM226.925 10.5625V92H229.925V10.5625H226.925ZM155.05 55.25H212.175V52.25H155.05V55.25ZM213.675 53.75V18.625H210.675V53.75H213.675ZM212.175 17.125H183.613V20.125H212.175V17.125ZM183.613 17.125C183.021 17.125 181.879 17.218 180.272 17.3828L180.578 20.3672C182.221 20.1987 183.204 20.125 183.613 20.125V17.125ZM180.307 17.3797C178.601 17.5143 176.649 17.8915 174.465 18.491L175.26 21.384C177.326 20.8169 179.082 20.4857 180.543 20.3703L180.307 17.3797ZM174.458 18.4931C172.258 19.1092 169.953 20.0472 167.548 21.293L168.927 23.957C171.188 22.7861 173.301 21.9325 175.267 21.3819L174.458 18.4931ZM167.548 21.293C165.045 22.5893 162.762 24.3678 160.697 26.6085L162.903 28.6415C164.755 26.6322 166.764 25.0774 168.927 23.957L167.548 21.293ZM160.697 26.6085C158.594 28.8903 156.88 31.7205 155.534 35.0648L158.316 36.1852C159.553 33.1129 161.089 30.6097 162.903 28.6415L160.697 26.6085ZM155.53 35.0743C154.192 38.4641 153.55 42.5167 153.55 47.1875H156.55C156.55 42.775 157.158 39.1192 158.32 36.1757L155.53 35.0743ZM153.55 47.1875V53.75H156.55V47.1875H153.55ZM349.038 88.3125L347.674 87.6875L347.663 87.7114L347.653 87.7356L349.038 88.3125ZM347.288 90.9375L346.227 89.8768L347.288 90.9375ZM344.725 92.625L344.148 91.2404L344.725 92.625ZM338.475 92.6875L337.948 94.092L337.958 94.0955L337.967 94.0988L338.475 92.6875ZM335.788 90.875L336.875 89.8419L336.871 89.8375L335.788 90.875ZM276.413 28.875L277.496 27.8375L274.913 25.14V28.875H276.413ZM276.413 92V93.5H277.913V92H276.413ZM260.163 92H258.663V93.5H260.163V92ZM261.538 4.8125L260.307 3.95479L260.301 3.96271L261.538 4.8125ZM265.163 1.75L264.599 0.359891L264.569 0.372184L264.539 0.385788L265.163 1.75ZM269.913 1.3125L269.611 2.7819L269.629 2.78563L269.648 2.78891L269.913 1.3125ZM274.1 3.5625L275.183 2.52447L275.179 2.52061L274.1 3.5625ZM333.475 65.5L332.392 66.538L334.975 69.2323V65.5H333.475ZM333.475 2.375V0.875H331.975V2.375H333.475ZM349.725 2.375H351.225V0.875H349.725V2.375ZM348.225 85.0625C348.225 86.0268 348.037 86.8954 347.674 87.6875L350.401 88.9375C350.955 87.7296 351.225 86.4316 351.225 85.0625H348.225ZM347.653 87.7356C347.31 88.5587 346.835 89.2684 346.227 89.8768L348.348 91.9982C349.24 91.1066 349.932 90.0663 350.422 88.8894L347.653 87.7356ZM346.227 89.8768C345.668 90.4357 344.982 90.8929 344.148 91.2404L345.302 94.0096C346.468 93.5238 347.49 92.856 348.348 91.9982L346.227 89.8768ZM344.148 91.2404C343.338 91.578 342.472 91.75 341.538 91.75V94.75C342.853 94.75 344.112 94.5054 345.302 94.0096L344.148 91.2404ZM341.538 91.75C340.728 91.75 339.879 91.5988 338.983 91.2762L337.967 94.0988C339.154 94.5262 340.347 94.75 341.538 94.75V91.75ZM339.002 91.283C338.23 90.9937 337.522 90.5234 336.875 89.8419L334.7 91.9081C335.636 92.8933 336.72 93.6313 337.948 94.092L339.002 91.283ZM336.871 89.8375L277.496 27.8375L275.329 29.9125L334.704 91.9125L336.871 89.8375ZM274.913 28.875V92H277.913V28.875H274.913ZM276.413 90.5H260.163V93.5H276.413V90.5ZM261.663 92V9.3125H258.663V92H261.663ZM261.663 9.3125C261.663 7.93957 262.034 6.7377 262.774 5.66229L260.301 3.96271C259.207 5.55396 258.663 7.35209 258.663 9.3125H261.663ZM262.768 5.67019C263.58 4.50488 264.583 3.6642 265.786 3.11421L264.539 0.385788C262.825 1.16913 261.411 2.37012 260.307 3.95481L262.768 5.67019ZM265.726 3.14011C266.994 2.62593 268.277 2.5082 269.611 2.7819L270.214 -0.156904C268.298 -0.54987 266.414 -0.375932 264.599 0.359891L265.726 3.14011ZM269.648 2.78891C270.956 3.02385 272.069 3.61862 273.021 4.60439L275.179 2.52061C273.798 1.08971 272.119 0.184481 270.178 -0.163907L269.648 2.78891ZM273.017 4.60052L332.392 66.538L334.558 64.462L275.183 2.52448L273.017 4.60052ZM334.975 65.5V2.375H331.975V65.5H334.975ZM333.475 3.875H349.725V0.875H333.475V3.875ZM348.225 2.375V85.0625H351.225V2.375H348.225Z"/>
</g>
<defs>
<filter id="filter0_d_2_3" x="0.4375" y="0.6875" width="353.287" height="100.562" filterUnits="userSpaceOnUse" color-interpolation-filters="sRGB">
<feFlood flood-opacity="0" result="BackgroundImageFix"/>
<feColorMatrix in="SourceAlpha" type="matrix" values="0 0 0 0 0 0 0 0 0 0 0 0 0 0 0 0 0 0 127 0" result="hardAlpha"/>
<feOffset dy="4"/>
<feGaussianBlur stdDeviation="2"/>
<feComposite in2="hardAlpha" operator="out"/>
<feColorMatrix type="matrix" values="0 0 0 0 0 0 0 0 0 0 0 0 0 0 0 0 0 0 0.25 0"/>
<feBlend mode="normal" in2="BackgroundImageFix" result="effect1_dropShadow_2_3"/>
<feBlend mode="normal" in="SourceGraphic" in2="effect1_dropShadow_2_3" result="shape"/>
</filter>
</defs>
</svg>
