<svg width="311" height="98" viewBox="0 0 311 98" fill="none" xmlns="http://www.w3.org/2000/svg">
<g filter="url(#filter0_d_2_3)">
<path d="M86.75 90H12.625C11.4583 90 10.375 89.7917 9.375 89.375C8.375 88.9583 7.5 88.3958 6.75 87.6875C6.04167 86.9375 5.47917 86.0625 5.0625 85.0625C4.64583 84.0625 4.4375 82.9792 4.4375 81.8125V0.375H20.6875V73.75H86.75V90ZM193.8 90H119.675C118.508 90 117.425 89.7917 116.425 89.375C115.425 88.9583 114.55 88.3958 113.8 87.6875C113.092 86.9375 112.529 86.0625 112.113 85.0625C111.696 84.0625 111.488 82.9792 111.488 81.8125V0.375H127.738V73.75H193.8V90ZM306.475 90H290.225V68H233.1V90H216.85V45.1875C216.85 38.6458 217.975 32.625 220.225 27.125C222.475 21.625 225.6 16.8958 229.6 12.9375C233.6 8.97917 238.329 5.89583 243.788 3.6875C249.246 1.47917 255.204 0.375 261.663 0.375H298.288C299.413 0.375 300.475 0.583333 301.475 1C302.475 1.41667 303.35 2 304.1 2.75C304.85 3.5 305.433 4.375 305.85 5.375C306.267 6.375 306.475 7.4375 306.475 8.5625V90ZM233.1 51.75H290.225V16.625H261.663C261.163 16.625 260.1 16.7083 258.475 16.875C256.892 17 255.038 17.3542 252.913 17.9375C250.829 18.5208 248.621 19.4167 246.288 20.625C243.954 21.8333 241.808 23.5 239.85 25.625C237.892 27.75 236.267 30.4167 234.975 33.625C233.725 36.7917 233.1 40.6458 233.1 45.1875V51.75Z"/>
<path d="M86.75 90V91.5H88.25V90H86.75ZM9.375 89.375L8.79808 90.7596L9.375 89.375ZM6.75 87.6875L5.65948 88.7174L5.68891 88.7486L5.72006 88.778L6.75 87.6875ZM4.4375 0.375V-1.125H2.9375V0.375H4.4375ZM20.6875 0.375H22.1875V-1.125H20.6875V0.375ZM20.6875 73.75H19.1875V75.25H20.6875V73.75ZM86.75 73.75H88.25V72.25H86.75V73.75ZM86.75 88.5H12.625V91.5H86.75V88.5ZM12.625 88.5C11.641 88.5 10.7554 88.3252 9.95192 87.9904L8.79808 90.7596C9.99457 91.2582 11.2757 91.5 12.625 91.5V88.5ZM9.95192 87.9904C9.11098 87.64 8.39144 87.1745 7.77994 86.597L5.72006 88.778C6.60856 89.6172 7.63902 90.2767 8.79808 90.7596L9.95192 87.9904ZM7.84052 86.6576C7.26299 86.0461 6.79751 85.3265 6.44712 84.4856L3.67788 85.6394C4.16082 86.7985 4.82034 87.8289 5.65948 88.7174L7.84052 86.6576ZM6.44712 84.4856C6.11232 83.6821 5.9375 82.7965 5.9375 81.8125H2.9375C2.9375 83.1618 3.17935 84.4429 3.67788 85.6394L6.44712 84.4856ZM5.9375 81.8125V0.375H2.9375V81.8125H5.9375ZM4.4375 1.875H20.6875V-1.125H4.4375V1.875ZM19.1875 0.375V73.75H22.1875V0.375H19.1875ZM20.6875 75.25H86.75V72.25H20.6875V75.25ZM85.25 73.75V90H88.25V73.75H85.25ZM193.8 90V91.5H195.3V90H193.8ZM116.425 89.375L115.848 90.7596L116.425 89.375ZM113.8 87.6875L112.709 88.7174L112.739 88.7486L112.77 88.778L113.8 87.6875ZM111.488 0.375V-1.125H109.988V0.375H111.488ZM127.738 0.375H129.238V-1.125H127.738V0.375ZM127.738 73.75H126.238V75.25H127.738V73.75ZM193.8 73.75H195.3V72.25H193.8V73.75ZM193.8 88.5H119.675V91.5H193.8V88.5ZM119.675 88.5C118.691 88.5 117.805 88.3252 117.002 87.9904L115.848 90.7596C117.045 91.2582 118.326 91.5 119.675 91.5V88.5ZM117.002 87.9904C116.161 87.64 115.441 87.1745 114.83 86.597L112.77 88.778C113.659 89.6172 114.689 90.2767 115.848 90.7596L117.002 87.9904ZM114.891 86.6576C114.313 86.0461 113.848 85.3265 113.497 84.4856L110.728 85.6394C111.211 86.7985 111.87 87.8289 112.709 88.7174L114.891 86.6576ZM113.497 84.4856C113.162 83.6821 112.988 82.7965 112.988 81.8125H109.988C109.988 83.1618 110.229 84.4429 110.728 85.6394L113.497 84.4856ZM112.988 81.8125V0.375H109.988V81.8125H112.988ZM111.488 1.875H127.738V-1.125H111.488V1.875ZM126.238 0.375V73.75H129.238V0.375H126.238ZM127.738 75.25H193.8V72.25H127.738V75.25ZM192.3 73.75V90H195.3V73.75H192.3ZM306.475 90V91.5H307.975V90H306.475ZM290.225 90H288.725V91.5H290.225V90ZM290.225 68H291.725V66.5H290.225V68ZM233.1 68V66.5H231.6V68H233.1ZM233.1 90V91.5H234.6V90H233.1ZM216.85 90H215.35V91.5H216.85V90ZM243.788 3.6875L243.225 2.29699L243.788 3.6875ZM233.1 51.75H231.6V53.25H233.1V51.75ZM290.225 51.75V53.25H291.725V51.75H290.225ZM290.225 16.625H291.725V15.125H290.225V16.625ZM258.475 16.875L258.593 18.3703L258.611 18.369L258.628 18.3672L258.475 16.875ZM252.913 17.9375L252.515 16.491L252.508 16.4931L252.913 17.9375ZM239.85 25.625L238.747 24.6085L239.85 25.625ZM234.975 33.625L233.584 33.0648L233.58 33.0743L234.975 33.625ZM306.475 88.5H290.225V91.5H306.475V88.5ZM291.725 90V68H288.725V90H291.725ZM290.225 66.5H233.1V69.5H290.225V66.5ZM231.6 68V90H234.6V68H231.6ZM233.1 88.5H216.85V91.5H233.1V88.5ZM218.35 90V45.1875H215.35V90H218.35ZM218.35 45.1875C218.35 38.8209 219.444 32.9953 221.613 27.6929L218.837 26.5571C216.506 32.2547 215.35 38.4708 215.35 45.1875H218.35ZM221.613 27.6929C223.791 22.3691 226.807 17.8122 230.655 14.0037L228.545 11.8713C224.394 15.9795 221.159 20.8809 218.837 26.5571L221.613 27.6929ZM230.655 14.0037C234.507 10.1914 239.067 7.2154 244.35 5.07801L243.225 2.29699C237.591 4.57626 232.693 7.7669 228.545 11.8713L230.655 14.0037ZM244.35 5.07801C249.613 2.9487 255.378 1.875 261.663 1.875V-1.125C255.03 -1.125 248.879 0.00963257 243.225 2.29699L244.35 5.07801ZM261.663 1.875H298.288V-1.125H261.663V1.875ZM298.288 1.875C299.222 1.875 300.088 2.04705 300.898 2.38462L302.052 -0.384615C300.862 -0.880383 299.603 -1.125 298.288 -1.125V1.875ZM300.898 2.38462C301.721 2.72757 302.431 3.2022 303.039 3.81066L305.161 1.68934C304.269 0.797799 303.229 0.105759 302.052 -0.384615L300.898 2.38462ZM303.039 3.81066C303.648 4.41912 304.122 5.12882 304.465 5.95192L307.235 4.79808C306.744 3.62118 306.052 2.58088 305.161 1.68934L303.039 3.81066ZM304.465 5.95192C304.803 6.76208 304.975 7.62777 304.975 8.5625H307.975C307.975 7.24723 307.73 5.98792 307.235 4.79808L304.465 5.95192ZM304.975 8.5625V90H307.975V8.5625H304.975ZM233.1 53.25H290.225V50.25H233.1V53.25ZM291.725 51.75V16.625H288.725V51.75H291.725ZM290.225 15.125H261.663V18.125H290.225V15.125ZM261.663 15.125C261.071 15.125 259.929 15.218 258.322 15.3828L258.628 18.3672C260.271 18.1987 261.254 18.125 261.663 18.125V15.125ZM258.357 15.3797C256.651 15.5143 254.699 15.8915 252.515 16.491L253.31 19.384C255.376 18.8169 257.132 18.4857 258.593 18.3703L258.357 15.3797ZM252.508 16.4931C250.308 17.1092 248.003 18.0472 245.598 19.293L246.977 21.957C249.238 20.7861 251.351 19.9325 253.317 19.3819L252.508 16.4931ZM245.598 19.293C243.095 20.5893 240.812 22.3678 238.747 24.6085L240.953 26.6415C242.805 24.6322 244.814 23.0774 246.977 21.957L245.598 19.293ZM238.747 24.6085C236.644 26.8903 234.93 29.7205 233.584 33.0648L236.366 34.1852C237.603 31.1129 239.139 28.6097 240.953 26.6415L238.747 24.6085ZM233.58 33.0743C232.242 36.4641 231.6 40.5167 231.6 45.1875H234.6C234.6 40.775 235.208 37.1192 236.37 34.1757L233.58 33.0743ZM231.6 45.1875V51.75H234.6V45.1875H231.6Z" />
</g>
<defs>
<filter id="filter0_d_2_3" x="0.4375" y="0.375" width="310.038" height="97.625" filterUnits="userSpaceOnUse" color-interpolation-filters="sRGB">
<feFlood flood-opacity="0" result="BackgroundImageFix"/>
<feColorMatrix in="SourceAlpha" type="matrix" values="0 0 0 0 0 0 0 0 0 0 0 0 0 0 0 0 0 0 127 0" result="hardAlpha"/>
<feOffset dy="4"/>
<feGaussianBlur stdDeviation="2"/>
<feComposite in2="hardAlpha" operator="out"/>
<feColorMatrix type="matrix" values="0 0 0 0 0 0 0 0 0 0 0 0 0 0 0 0 0 0 0.25 0"/>
<feBlend mode="normal" in2="BackgroundImageFix" result="effect1_dropShadow_2_3"/>
<feBlend mode="normal" in="SourceGraphic" in2="effect1_dropShadow_2_3" result="shape"/>
</filter>
</defs>
</svg>
