<svg width="641" height="98" viewBox="0 0 641 98" fill="none" xmlns="http://www.w3.org/2000/svg">
<g filter="url(#filter0_d_2_3)">
<path d="M93.5625 63.625C93.5625 66.8333 93.1458 69.7292 92.3125 72.3125C91.5208 74.8542 90.4583 77.1042 89.125 79.0625C87.7917 81.0208 86.2292 82.6875 84.4375 84.0625C82.6458 85.4375 80.7917 86.5625 78.875 87.4375C76.9583 88.3125 75 88.9583 73 89.375C71.0417 89.7917 69.1875 90 67.4375 90H4.75V73.75H67.4375C70.5625 73.75 72.9792 72.8333 74.6875 71C76.4375 69.1667 77.3125 66.7083 77.3125 63.625C77.3125 62.125 77.0833 60.75 76.625 59.5C76.1667 58.25 75.5 57.1667 74.625 56.25C73.7917 55.3333 72.75 54.625 71.5 54.125C70.2917 53.625 68.9375 53.375 67.4375 53.375H30.0625C27.4375 53.375 24.6042 52.9167 21.5625 52C18.5208 51.0417 15.6875 49.5208 13.0625 47.4375C10.4792 45.3542 8.3125 42.625 6.5625 39.25C4.85417 35.875 4 31.75 4 26.875C4 22 4.85417 17.8958 6.5625 14.5625C8.3125 11.1875 10.4792 8.45833 13.0625 6.375C15.6875 4.25 18.5208 2.72917 21.5625 1.8125C24.6042 0.854167 27.4375 0.375 30.0625 0.375H85.375V16.625H30.0625C26.9792 16.625 24.5625 17.5625 22.8125 19.4375C21.1042 21.3125 20.25 23.7917 20.25 26.875C20.25 30 21.1042 32.4792 22.8125 34.3125C24.5625 36.1042 26.9792 37 30.0625 37H67.4375H67.5625C69.3125 37.0417 71.1667 37.2917 73.125 37.75C75.0833 38.1667 77.0208 38.8333 78.9375 39.75C80.8958 40.6667 82.75 41.8333 84.5 43.25C86.25 44.625 87.7917 46.2917 89.125 48.25C90.5 50.2083 91.5833 52.4583 92.375 55C93.1667 57.5417 93.5625 60.4167 93.5625 63.625ZM199.863 16.625H164.05V90H147.8V16.625H111.925V0.375H199.863V16.625ZM298.35 53.375H247.038V37H298.35V53.375ZM305.663 90H247.038C244.788 90 242.329 89.6042 239.663 88.8125C236.996 88.0208 234.517 86.7292 232.225 84.9375C229.975 83.1042 228.079 80.75 226.538 77.875C225.038 74.9583 224.288 71.3958 224.288 67.1875V8.5625C224.288 7.4375 224.496 6.375 224.913 5.375C225.329 4.375 225.892 3.5 226.6 2.75C227.35 2 228.225 1.41667 229.225 1C230.225 0.583333 231.308 0.375 232.475 0.375H305.663V16.625H240.538V67.1875C240.538 69.3125 241.1 70.9375 242.225 72.0625C243.35 73.1875 244.996 73.75 247.163 73.75H305.663V90ZM416.525 90H342.4C341.233 90 340.15 89.7917 339.15 89.375C338.15 88.9583 337.275 88.3958 336.525 87.6875C335.817 86.9375 335.254 86.0625 334.837 85.0625C334.421 84.0625 334.212 82.9792 334.212 81.8125V0.375H350.462V73.75H416.525V90ZM523.575 90H449.45C448.283 90 447.2 89.7917 446.2 89.375C445.2 88.9583 444.325 88.3958 443.575 87.6875C442.867 86.9375 442.304 86.0625 441.888 85.0625C441.471 84.0625 441.263 82.9792 441.263 81.8125V0.375H457.513V73.75H523.575V90ZM636.25 90H620V68H562.875V90H546.625V45.1875C546.625 38.6458 547.75 32.625 550 27.125C552.25 21.625 555.375 16.8958 559.375 12.9375C563.375 8.97917 568.104 5.89583 573.562 3.6875C579.021 1.47917 584.979 0.375 591.438 0.375H628.062C629.188 0.375 630.25 0.583333 631.25 1C632.25 1.41667 633.125 2 633.875 2.75C634.625 3.5 635.208 4.375 635.625 5.375C636.042 6.375 636.25 7.4375 636.25 8.5625V90ZM562.875 51.75H620V16.625H591.438C590.938 16.625 589.875 16.7083 588.25 16.875C586.667 17 584.812 17.3542 582.688 17.9375C580.604 18.5208 578.396 19.4167 576.062 20.625C573.729 21.8333 571.583 23.5 569.625 25.625C567.667 27.75 566.042 30.4167 564.75 33.625C563.5 36.7917 562.875 40.6458 562.875 45.1875V51.75Z" fill="red"/>
<path d="M92.3125 72.3125L90.8849 71.852L90.8826 71.8592L90.8804 71.8664L92.3125 72.3125ZM73 89.375L72.6941 87.9065L72.6878 87.9078L73 89.375ZM4.75 90H3.25V91.5H4.75V90ZM4.75 73.75V72.25H3.25V73.75H4.75ZM74.6875 71L73.6025 69.9643L73.5962 69.9708L73.5901 69.9774L74.6875 71ZM74.625 56.25L73.5151 57.259L73.5274 57.2725L73.54 57.2857L74.625 56.25ZM71.5 54.125L70.9265 55.511L70.9347 55.5144L70.9429 55.5177L71.5 54.125ZM21.5625 52L21.1117 53.4307L21.1207 53.4335L21.1297 53.4362L21.5625 52ZM13.0625 47.4375L12.1208 48.6052L12.13 48.6124L13.0625 47.4375ZM6.5625 39.25L5.22418 39.9274L5.22749 39.934L5.23087 39.9405L6.5625 39.25ZM6.5625 14.5625L5.23085 13.872L5.2276 13.8784L6.5625 14.5625ZM13.0625 6.375L14.0041 7.54262L14.0063 7.54087L13.0625 6.375ZM21.5625 1.8125L21.9953 3.2487L22.0043 3.24599L22.0133 3.24317L21.5625 1.8125ZM85.375 0.375H86.875V-1.125H85.375V0.375ZM85.375 16.625V18.125H86.875V16.625H85.375ZM22.8125 19.4375L21.7159 18.414L21.7098 18.4206L21.7037 18.4273L22.8125 19.4375ZM22.8125 34.3125L21.7151 35.3351L21.7271 35.348L21.7394 35.3606L22.8125 34.3125ZM67.5625 37L67.5982 35.5004L67.5804 35.5H67.5625V37ZM73.125 37.75L72.7832 39.2105L72.798 39.214L72.8128 39.2172L73.125 37.75ZM78.9375 39.75L78.2903 41.1032L78.3016 41.1085L78.9375 39.75ZM84.5 43.25L83.5562 44.4159L83.5647 44.4227L83.5733 44.4295L84.5 43.25ZM89.125 48.25L87.8851 49.0942L87.8912 49.1031L87.8974 49.1119L89.125 48.25ZM92.0625 63.625C92.0625 66.7047 91.6625 69.4417 90.8849 71.852L93.7401 72.773C94.6292 70.0167 95.0625 66.962 95.0625 63.625H92.0625ZM90.8804 71.8664C90.1274 74.2839 89.1255 76.3965 87.8851 78.2183L90.3649 79.9067C91.7912 77.8118 92.9143 75.4245 93.7446 72.7586L90.8804 71.8664ZM87.8851 78.2183C86.6371 80.0513 85.1833 81.5994 83.5243 82.8725L85.3507 85.2525C87.2751 83.7756 88.9462 81.9904 90.3649 79.9067L87.8851 78.2183ZM83.5243 82.8725C81.8161 84.1835 80.0586 85.2482 78.2521 86.073L79.4979 88.802C81.5247 87.8768 83.4756 86.6915 85.3507 85.2525L83.5243 82.8725ZM78.2521 86.073C76.4337 86.9031 74.5815 87.5133 72.6941 87.9065L73.3059 90.8435C75.4185 90.4033 77.483 89.7219 79.4979 88.802L78.2521 86.073ZM72.6878 87.9078C70.8177 88.3057 69.0688 88.5 67.4375 88.5V91.5C69.3062 91.5 71.2656 91.2776 73.3122 90.8422L72.6878 87.9078ZM67.4375 88.5H4.75V91.5H67.4375V88.5ZM6.25 90V73.75H3.25V90H6.25ZM4.75 75.25H67.4375V72.25H4.75V75.25ZM67.4375 75.25C70.8688 75.25 73.7257 74.2325 75.7849 72.0226L73.5901 69.9774C72.2326 71.4342 70.2562 72.25 67.4375 72.25V75.25ZM75.7725 72.0357C77.8442 69.8654 78.8125 67.0057 78.8125 63.625H75.8125C75.8125 66.411 75.0308 68.468 73.6025 69.9643L75.7725 72.0357ZM78.8125 63.625C78.8125 61.9709 78.5595 60.4186 78.0333 58.9836L75.2167 60.0164C75.6072 61.0814 75.8125 62.2791 75.8125 63.625H78.8125ZM78.0333 58.9836C77.5077 57.5501 76.7345 56.2875 75.71 55.2143L73.54 57.2857C74.2655 58.0458 74.8256 58.9499 75.2167 60.0164L78.0333 58.9836ZM75.7349 55.241C74.7358 54.142 73.4994 53.3092 72.0571 52.7323L70.9429 55.5177C72.0006 55.9408 72.8475 56.5247 73.5151 57.259L75.7349 55.241ZM72.0735 52.739C70.6586 52.1535 69.1056 51.875 67.4375 51.875V54.875C68.7694 54.875 69.9248 55.0965 70.9265 55.511L72.0735 52.739ZM67.4375 51.875H30.0625V54.875H67.4375V51.875ZM30.0625 51.875C27.6111 51.875 24.925 51.4467 21.9953 50.5638L21.1297 53.4362C24.2833 54.3866 27.2639 54.875 30.0625 54.875V51.875ZM22.0133 50.5693C19.1552 49.6689 16.4838 48.2378 13.995 46.2626L12.13 48.6124C14.8912 50.8039 17.8864 52.4145 21.1117 53.4307L22.0133 50.5693ZM14.0041 46.2699C11.6043 44.3345 9.5624 41.7769 7.89413 38.5595L5.23087 39.9405C7.0626 43.4731 9.35404 46.3738 12.1209 48.6051L14.0041 46.2699ZM7.90082 38.5726C6.32497 35.4593 5.5 31.5804 5.5 26.875H2.5C2.5 31.9196 3.38337 36.2907 5.22418 39.9274L7.90082 38.5726ZM5.5 26.875C5.5 22.1686 6.32529 18.3142 7.8974 15.2466L5.2276 13.8784C3.38305 17.4775 2.5 21.8314 2.5 26.875H5.5ZM7.89413 15.253C9.5624 12.0356 11.6043 9.47797 14.0041 7.54262L12.1209 5.20738C9.35404 7.4387 7.0626 10.3394 5.23087 13.872L7.89413 15.253ZM14.0063 7.54087C16.4898 5.53043 19.1514 4.10576 21.9953 3.2487L21.1297 0.376303C17.8902 1.35258 14.8852 2.96957 12.1187 5.20913L14.0063 7.54087ZM22.0133 3.24317C24.9393 2.32127 27.6191 1.875 30.0625 1.875V-1.125C27.2559 -1.125 24.2691 -0.61294 21.1117 0.38183L22.0133 3.24317ZM30.0625 1.875H85.375V-1.125H30.0625V1.875ZM83.875 0.375V16.625H86.875V0.375H83.875ZM85.375 15.125H30.0625V18.125H85.375V15.125ZM30.0625 15.125C26.6543 15.125 23.8062 16.1744 21.7159 18.414L23.9091 20.461C25.3188 18.9506 27.304 18.125 30.0625 18.125V15.125ZM21.7037 18.4273C19.6919 20.6353 18.75 23.5026 18.75 26.875H21.75C21.75 24.0807 22.5164 21.9897 23.9213 20.4477L21.7037 18.4273ZM18.75 26.875C18.75 30.2815 19.6881 33.1598 21.7151 35.3351L23.9099 33.2899C22.5202 31.7985 21.75 29.7185 21.75 26.875H18.75ZM21.7394 35.3606C23.8343 37.5054 26.6747 38.5 30.0625 38.5V35.5C27.2836 35.5 25.2907 34.7029 23.8856 33.2644L21.7394 35.3606ZM30.0625 38.5H67.4375V35.5H30.0625V38.5ZM67.4375 38.5H67.5625V35.5H67.4375V38.5ZM67.5268 38.4996C69.1598 38.5385 70.9107 38.7723 72.7832 39.2105L73.4668 36.2895C71.4226 35.811 69.4652 35.5449 67.5982 35.5004L67.5268 38.4996ZM72.8128 39.2172C74.6486 39.6077 76.4739 40.2345 78.2903 41.1032L79.5847 38.3968C77.5677 37.4322 75.5181 36.7256 73.4372 36.2828L72.8128 39.2172ZM78.3016 41.1085C80.1454 41.9716 81.8967 43.0725 83.5562 44.4159L85.4438 42.0841C83.6033 40.5942 81.6463 39.3617 79.5734 38.3915L78.3016 41.1085ZM83.5733 44.4295C85.1947 45.7035 86.6328 47.2548 87.8851 49.0942L90.3649 47.4058C88.9506 45.3285 87.3053 43.5465 85.4267 42.0705L83.5733 44.4295ZM87.8974 49.1119C89.1736 50.9297 90.1923 53.0363 90.9429 55.4461L93.8071 54.5539C92.9744 51.8804 91.8264 49.487 90.3526 47.3881L87.8974 49.1119ZM90.9429 55.4461C91.6814 57.8173 92.0625 60.538 92.0625 63.625H95.0625C95.0625 60.2954 94.6519 57.2661 93.8071 54.5539L90.9429 55.4461ZM199.863 16.625V18.125H201.363V16.625H199.863ZM164.05 16.625V15.125H162.55V16.625H164.05ZM164.05 90V91.5H165.55V90H164.05ZM147.8 90H146.3V91.5H147.8V90ZM147.8 16.625H149.3V15.125H147.8V16.625ZM111.925 16.625H110.425V18.125H111.925V16.625ZM111.925 0.375V-1.125H110.425V0.375H111.925ZM199.863 0.375H201.363V-1.125H199.863V0.375ZM199.863 15.125H164.05V18.125H199.863V15.125ZM162.55 16.625V90H165.55V16.625H162.55ZM164.05 88.5H147.8V91.5H164.05V88.5ZM149.3 90V16.625H146.3V90H149.3ZM147.8 15.125H111.925V18.125H147.8V15.125ZM113.425 16.625V0.375H110.425V16.625H113.425ZM111.925 1.875H199.863V-1.125H111.925V1.875ZM198.363 0.375V16.625H201.363V0.375H198.363ZM298.35 53.375V54.875H299.85V53.375H298.35ZM247.038 53.375H245.538V54.875H247.038V53.375ZM247.038 37V35.5H245.538V37H247.038ZM298.35 37H299.85V35.5H298.35V37ZM305.663 90V91.5H307.163V90H305.663ZM232.225 84.9375L231.277 86.1004L231.289 86.1099L231.301 86.1192L232.225 84.9375ZM226.538 77.875L225.204 78.561L225.209 78.5725L225.216 78.5839L226.538 77.875ZM226.6 2.75L225.539 1.68934L225.524 1.70449L225.509 1.72006L226.6 2.75ZM305.663 0.375H307.163V-1.125H305.663V0.375ZM305.663 16.625V18.125H307.163V16.625H305.663ZM240.538 16.625V15.125H239.038V16.625H240.538ZM305.663 73.75H307.163V72.25H305.663V73.75ZM298.35 51.875H247.038V54.875H298.35V51.875ZM248.538 53.375V37H245.538V53.375H248.538ZM247.038 38.5H298.35V35.5H247.038V38.5ZM296.85 37V53.375H299.85V37H296.85ZM305.663 88.5H247.038V91.5H305.663V88.5ZM247.038 88.5C244.961 88.5 242.649 88.1344 240.089 87.3745L239.236 90.2505C242.01 91.074 244.614 91.5 247.038 91.5V88.5ZM240.089 87.3745C237.611 86.6388 235.299 85.437 233.149 83.7558L231.301 86.1192C233.734 88.0213 236.38 89.4029 239.236 90.2505L240.089 87.3745ZM233.173 83.7746C231.094 82.081 229.319 79.8882 227.859 77.1661L225.216 78.5839C226.839 81.6118 228.856 84.1273 231.277 86.1004L233.173 83.7746ZM227.871 77.189C226.507 74.536 225.788 71.2228 225.788 67.1875H222.788C222.788 71.5689 223.568 75.3806 225.204 78.561L227.871 77.189ZM225.788 67.1875V8.5625H222.788V67.1875H225.788ZM225.788 8.5625C225.788 7.62777 225.96 6.76208 226.297 5.95192L223.528 4.79808C223.032 5.98792 222.788 7.24723 222.788 8.5625H225.788ZM226.297 5.95192C226.648 5.11098 227.113 4.39144 227.691 3.77994L225.509 1.72006C224.67 2.60856 224.011 3.63902 223.528 4.79808L226.297 5.95192ZM227.661 3.81066C228.269 3.2022 228.979 2.72757 229.802 2.38462L228.648 -0.384615C227.471 0.105759 226.431 0.797799 225.539 1.68934L227.661 3.81066ZM229.802 2.38462C230.605 2.04982 231.491 1.875 232.475 1.875V-1.125C231.126 -1.125 229.845 -0.883154 228.648 -0.384615L229.802 2.38462ZM232.475 1.875H305.663V-1.125H232.475V1.875ZM304.163 0.375V16.625H307.163V0.375H304.163ZM305.663 15.125H240.538V18.125H305.663V15.125ZM239.038 16.625V67.1875H242.038V16.625H239.038ZM239.038 67.1875C239.038 69.5725 239.674 71.6324 241.164 73.1232L243.286 71.0018C242.526 70.2426 242.038 69.0525 242.038 67.1875H239.038ZM241.164 73.1232C242.66 74.619 244.746 75.25 247.163 75.25V72.25C245.246 72.25 244.04 71.756 243.286 71.0018L241.164 73.1232ZM247.163 75.25H305.663V72.25H247.163V75.25ZM304.163 73.75V90H307.163V73.75H304.163ZM416.525 90V91.5H418.025V90H416.525ZM339.15 89.375L338.573 90.7596L339.15 89.375ZM336.525 87.6875L335.434 88.7174L335.464 88.7486L335.495 88.778L336.525 87.6875ZM334.212 0.375V-1.125H332.712V0.375H334.212ZM350.462 0.375H351.962V-1.125H350.462V0.375ZM350.462 73.75H348.962V75.25H350.462V73.75ZM416.525 73.75H418.025V72.25H416.525V73.75ZM416.525 88.5H342.4V91.5H416.525V88.5ZM342.4 88.5C341.416 88.5 340.53 88.3252 339.727 87.9904L338.573 90.7596C339.77 91.2582 341.051 91.5 342.4 91.5V88.5ZM339.727 87.9904C338.886 87.64 338.166 87.1745 337.555 86.597L335.495 88.778C336.384 89.6172 337.414 90.2767 338.573 90.7596L339.727 87.9904ZM337.616 86.6576C337.038 86.0461 336.573 85.3265 336.222 84.4856L333.453 85.6394C333.936 86.7985 334.595 87.8289 335.434 88.7174L337.616 86.6576ZM336.222 84.4856C335.887 83.6821 335.712 82.7965 335.712 81.8125H332.712C332.712 83.1618 332.954 84.4429 333.453 85.6394L336.222 84.4856ZM335.712 81.8125V0.375H332.712V81.8125H335.712ZM334.212 1.875H350.462V-1.125H334.212V1.875ZM348.962 0.375V73.75H351.962V0.375H348.962ZM350.462 75.25H416.525V72.25H350.462V75.25ZM415.025 73.75V90H418.025V73.75H415.025ZM523.575 90V91.5H525.075V90H523.575ZM446.2 89.375L445.623 90.7596L446.2 89.375ZM443.575 87.6875L442.484 88.7174L442.514 88.7486L442.545 88.778L443.575 87.6875ZM441.263 0.375V-1.125H439.763V0.375H441.263ZM457.513 0.375H459.013V-1.125H457.513V0.375ZM457.513 73.75H456.013V75.25H457.513V73.75ZM523.575 73.75H525.075V72.25H523.575V73.75ZM523.575 88.5H449.45V91.5H523.575V88.5ZM449.45 88.5C448.466 88.5 447.58 88.3252 446.777 87.9904L445.623 90.7596C446.82 91.2582 448.101 91.5 449.45 91.5V88.5ZM446.777 87.9904C445.936 87.64 445.216 87.1745 444.605 86.597L442.545 88.778C443.434 89.6172 444.464 90.2767 445.623 90.7596L446.777 87.9904ZM444.666 86.6576C444.088 86.0461 443.623 85.3265 443.272 84.4856L440.503 85.6394C440.986 86.7985 441.645 87.8289 442.484 88.7174L444.666 86.6576ZM443.272 84.4856C442.937 83.6821 442.763 82.7965 442.763 81.8125H439.763C439.763 83.1618 440.004 84.4429 440.503 85.6394L443.272 84.4856ZM442.763 81.8125V0.375H439.763V81.8125H442.763ZM441.263 1.875H457.513V-1.125H441.263V1.875ZM456.013 0.375V73.75H459.013V0.375H456.013ZM457.513 75.25H523.575V72.25H457.513V75.25ZM522.075 73.75V90H525.075V73.75H522.075ZM636.25 90V91.5H637.75V90H636.25ZM620 90H618.5V91.5H620V90ZM620 68H621.5V66.5H620V68ZM562.875 68V66.5H561.375V68H562.875ZM562.875 90V91.5H564.375V90H562.875ZM546.625 90H545.125V91.5H546.625V90ZM573.562 3.6875L573 2.29699L573.562 3.6875ZM562.875 51.75H561.375V53.25H562.875V51.75ZM620 51.75V53.25H621.5V51.75H620ZM620 16.625H621.5V15.125H620V16.625ZM588.25 16.875L588.368 18.3703L588.386 18.369L588.403 18.3672L588.25 16.875ZM582.688 17.9375L582.29 16.491L582.283 16.4931L582.688 17.9375ZM569.625 25.625L568.522 24.6085L569.625 25.625ZM564.75 33.625L563.359 33.0648L563.355 33.0743L564.75 33.625ZM636.25 88.5H620V91.5H636.25V88.5ZM621.5 90V68H618.5V90H621.5ZM620 66.5H562.875V69.5H620V66.5ZM561.375 68V90H564.375V68H561.375ZM562.875 88.5H546.625V91.5H562.875V88.5ZM548.125 90V45.1875H545.125V90H548.125ZM548.125 45.1875C548.125 38.8209 549.219 32.9953 551.388 27.6929L548.612 26.5571C546.281 32.2547 545.125 38.4708 545.125 45.1875H548.125ZM551.388 27.6929C553.566 22.3691 556.582 17.8122 560.43 14.0037L558.32 11.8713C554.168 15.9795 550.934 20.8809 548.612 26.5571L551.388 27.6929ZM560.43 14.0037C564.282 10.1914 568.842 7.2154 574.125 5.07801L573 2.29699C567.366 4.57626 562.468 7.7669 558.32 11.8713L560.43 14.0037ZM574.125 5.07801C579.388 2.9487 585.153 1.875 591.438 1.875V-1.125C584.805 -1.125 578.654 0.00963257 573 2.29699L574.125 5.07801ZM591.438 1.875H628.062V-1.125H591.438V1.875ZM628.062 1.875C628.997 1.875 629.863 2.04705 630.673 2.38462L631.827 -0.384615C630.637 -0.880383 629.378 -1.125 628.062 -1.125V1.875ZM630.673 2.38462C631.496 2.72757 632.206 3.2022 632.814 3.81066L634.936 1.68934C634.044 0.797799 633.004 0.105759 631.827 -0.384615L630.673 2.38462ZM632.814 3.81066C633.423 4.41912 633.897 5.12882 634.24 5.95192L637.01 4.79808C636.519 3.62118 635.827 2.58088 634.936 1.68934L632.814 3.81066ZM634.24 5.95192C634.578 6.76208 634.75 7.62777 634.75 8.5625H637.75C637.75 7.24723 637.505 5.98792 637.01 4.79808L634.24 5.95192ZM634.75 8.5625V90H637.75V8.5625H634.75ZM562.875 53.25H620V50.25H562.875V53.25ZM621.5 51.75V16.625H618.5V51.75H621.5ZM620 15.125H591.438V18.125H620V15.125ZM591.438 15.125C590.846 15.125 589.704 15.218 588.097 15.3828L588.403 18.3672C590.046 18.1987 591.029 18.125 591.438 18.125V15.125ZM588.132 15.3797C586.426 15.5143 584.474 15.8915 582.29 16.491L583.085 19.384C585.151 18.8169 586.907 18.4857 588.368 18.3703L588.132 15.3797ZM582.283 16.4931C580.083 17.1092 577.778 18.0472 575.373 19.293L576.752 21.957C579.013 20.7861 581.126 19.9325 583.092 19.3819L582.283 16.4931ZM575.373 19.293C572.87 20.5893 570.587 22.3678 568.522 24.6085L570.728 26.6415C572.58 24.6322 574.589 23.0774 576.752 21.957L575.373 19.293ZM568.522 24.6085C566.419 26.8903 564.705 29.7205 563.359 33.0648L566.141 34.1852C567.378 31.1129 568.914 28.6097 570.728 26.6415L568.522 24.6085ZM563.355 33.0743C562.017 36.4641 561.375 40.5167 561.375 45.1875H564.375C564.375 40.775 564.983 37.1192 566.145 34.1757L563.355 33.0743ZM561.375 45.1875V51.75H564.375V45.1875H561.375Z" fill="red"/>
</g>
<defs>
<filter id="filter0_d_2_3" x="0" y="0.375" width="640.25" height="97.625" filterUnits="userSpaceOnUse" color-interpolation-filters="sRGB">
<feFlood flood-opacity="0" result="BackgroundImageFix"/>
<feColorMatrix in="SourceAlpha" type="matrix" values="0 0 0 0 0 0 0 0 0 0 0 0 0 0 0 0 0 0 127 0" result="hardAlpha"/>
<feOffset dy="4"/>
<feGaussianBlur stdDeviation="2"/>
<feComposite in2="hardAlpha" operator="out"/>
<feColorMatrix type="matrix" values="0 0 0 0 0 0 0 0 0 0 0 0 0 0 0 0 0 0 0.25 0"/>
<feBlend mode="normal" in2="BackgroundImageFix" result="effect1_dropShadow_2_3"/>
<feBlend mode="normal" in="SourceGraphic" in2="effect1_dropShadow_2_3" result="shape"/>
</filter>
</defs>
</svg>
